<svg width="216" height="54" viewBox="0 0 216 54" fill="none" xmlns="http://www.w3.org/2000/svg">
<path d="M17.25 0H6.75C3.02208 0 0 3.02208 0 6.75V17.25C0 20.9779 3.02208 24 6.75 24H17.25C20.9779 24 24 20.9779 24 17.25V6.75C24 3.02208 20.9779 0 17.25 0Z" fill="#00B37E"/>
<path d="M47.25 0H36.75C33.0221 0 30 3.02208 30 6.75V17.25C30 20.9779 33.0221 24 36.75 24H47.25C50.9779 24 54 20.9779 54 17.25V6.75C54 3.02208 50.9779 0 47.25 0Z" fill="#C6F918"/>
<path d="M17.25 30H6.75C3.02208 30 0 33.0221 0 36.75V47.25C0 50.9779 3.02208 54 6.75 54H17.25C20.9779 54 24 50.9779 24 47.25V36.75C24 33.0221 20.9779 30 17.25 30Z" fill="#C6F918"/>
<path d="M47.25 30H36.75C33.0221 30 30 33.0221 30 36.75V47.25C30 50.9779 33.0221 54 36.75 54H47.25C50.9779 54 54 50.9779 54 47.25V36.75C54 33.0221 50.9779 30 47.25 30Z" fill="#00B37E"/>
<path d="M83.56 26.3H77.56V20.78C77.56 17.54 75.88 15.62 73.12 15.62C70.36 15.62 68.74 17.54 68.74 20.78V23.12C68.74 26.36 69.88 27.86 74.62 29.78L77.02 30.68C81.88 32.54 83.68 35.48 83.68 41.66V42.8C83.68 49.58 79.72 53.6 73.06 53.6C66.4 53.6 62.62 49.64 62.62 42.8V37.7H68.62V43.22C68.62 46.46 70.3 48.38 73.12 48.38C76 48.38 77.68 46.46 77.68 43.22V40.7C77.68 37.46 76.48 35.96 71.92 34.1L69.28 33.14C64.6 31.28 62.74 28.16 62.74 22.1V21.2C62.74 14.3 66.52 10.4 73.06 10.4C79.66 10.4 83.56 14.42 83.56 21.2V26.3ZM105.926 11V16.22H99.0263V53H93.0262V16.22H86.1262V11H105.926ZM111.922 11H121.342L127.762 53H121.762L119.842 40.82H113.302L111.442 53H105.442L111.922 11ZM114.082 35.6H119.062L116.782 20.78H116.362L114.082 35.6ZM145.588 16.22H136.588V29.42H145.168V34.64H136.588V53H130.588V11H145.588V16.22ZM163.907 16.22H154.907V29.42H163.487V34.64H154.907V53H148.907V11H163.907V16.22ZM167.167 21.2C167.167 13.64 171.607 10.4 177.607 10.4C183.727 10.4 188.287 13.76 188.287 21.2V42.8C188.287 50.24 183.727 53.6 177.607 53.6C171.607 53.6 167.167 50.3 167.167 42.8V21.2ZM173.167 20.78V43.22C173.167 47.06 175.387 48.38 177.727 48.38C180.007 48.38 182.287 47.06 182.287 43.22V20.78C182.287 16.94 180.007 15.62 177.727 15.62C175.387 15.62 173.167 16.94 173.167 20.78ZM213.106 26.3H207.106V20.78C207.106 17.54 205.426 15.62 202.666 15.62C199.906 15.62 198.286 17.54 198.286 20.78V23.12C198.286 26.36 199.426 27.86 204.166 29.78L206.566 30.68C211.426 32.54 213.226 35.48 213.226 41.66V42.8C213.226 49.58 209.266 53.6 202.606 53.6C195.946 53.6 192.166 49.64 192.166 42.8V37.7H198.166V43.22C198.166 46.46 199.846 48.38 202.666 48.38C205.546 48.38 207.226 46.46 207.226 43.22V40.7C207.226 37.46 206.026 35.96 201.466 34.1L198.826 33.14C194.146 31.28 192.286 28.16 192.286 22.1V21.2C192.286 14.3 196.066 10.4 202.606 10.4C209.206 10.4 213.106 14.42 213.106 21.2V26.3Z" fill="white"/>
</svg>
