<svg width="32" height="32" viewBox="0 0 32 32" fill="none" xmlns="http://www.w3.org/2000/svg">
<rect width="32" height="32" rx="4" fill="#171A22"/>
<path d="M13.252 6H21.5L19.5 8.5L15.492 25.6H12.804L7.932 9.556H7.792L8.24 25.6H6V6H8.688L13.588 22.072H13.728L13.252 6Z" fill="white"/>
<path d="M16.8398 11.1321C16.8398 10.2361 16.9705 9.47078 17.2318 8.83612C17.4932 8.20145 17.8385 7.68812 18.2678 7.29612C18.6972 6.88545 19.2012 6.58678 19.7798 6.40012C20.3772 6.21345 21.0118 6 21.6838 6C22.3558 6 22.9905 6.22278 23.5878 6.42812C24.1852 6.61478 24.6985 6.91345 25.1278 7.32412C25.5758 7.71612 25.9212 8.22945 26.1638 8.86412C26.4252 9.49878 26.5558 10.2548 26.5558 11.1321V21.2681C26.5558 22.1455 26.4252 22.9015 26.1638 23.5361C25.9212 24.1708 25.5758 24.6935 25.1278 25.1041C24.6985 25.4961 24.1852 25.7948 23.5878 26.0001C22.9905 26.1868 22.3558 26.2801 21.6838 26.2801C21.0118 26.2801 20.3772 26.1868 19.7798 26.0001C19.2012 25.8135 18.6972 25.5148 18.2678 25.1041C17.8385 24.6935 17.4932 24.1708 17.2318 23.5361C16.9705 22.9015 16.8398 22.1455 16.8398 21.2681V11.1321ZM19.0798 10.9921V21.4081C19.0798 21.9681 19.1545 22.4348 19.3038 22.8081C19.4532 23.1628 19.6492 23.4521 19.8918 23.6761C20.1345 23.9001 20.4145 24.0681 20.7318 24.1801C21.0678 24.2735 21.3945 24.3201 21.7118 24.3201C22.0478 24.3201 22.3652 24.2735 22.6638 24.1801C22.9812 24.0681 23.2612 23.9001 23.5038 23.6761C23.7465 23.4521 23.9425 23.1628 24.0918 22.8081C24.2412 22.4348 24.3158 21.9681 24.3158 21.4081V10.9921C24.3158 10.4321 24.2412 9.97478 24.0918 9.62012C23.9425 9.24678 23.7465 8.94812 23.5038 8.72412C23.2612 8.48145 22.9812 8.31345 22.6638 8.22012C22.3652 8.12678 22.0478 8.08012 21.7118 8.08012C21.3945 8.08012 21.0678 8.12678 20.7318 8.22012C20.4145 8.31345 20.1345 8.48145 19.8918 8.72412C19.6492 8.94812 19.4532 9.24678 19.3038 9.62012C19.1545 9.97478 19.0798 10.4321 19.0798 10.9921Z" fill="white"/>
</svg>
