<svg width="211" height="26" viewBox="0 0 211 26" fill="none" xmlns="http://www.w3.org/2000/svg">
<path d="M15.9545 3.04545V20.5H13.9091L4.39773 6.79545H4.22727V20.5H2.11364V3.04545H4.15909L13.7045 16.7841H13.875V3.04545H15.9545ZM21.9226 12.625V20.5H19.9112V7.40909H21.8544V9.45455H22.0249C22.3317 8.78977 22.7976 8.25568 23.4226 7.85227C24.0476 7.44318 24.8544 7.23864 25.843 7.23864C26.7294 7.23864 27.505 7.42045 28.1697 7.78409C28.8345 8.14205 29.3516 8.6875 29.7209 9.42045C30.0902 10.1477 30.2749 11.0682 30.2749 12.1818V20.5H28.2635V12.3182C28.2635 11.2898 27.9964 10.4886 27.4624 9.91477C26.9283 9.33523 26.1953 9.04545 25.2635 9.04545C24.6214 9.04545 24.0476 9.18466 23.5419 9.46307C23.0419 9.74148 22.647 10.1477 22.3572 10.6818C22.0675 11.2159 21.9226 11.8636 21.9226 12.625ZM37.8026 20.8068C36.973 20.8068 36.2202 20.6506 35.544 20.3381C34.8679 20.0199 34.331 19.5625 33.9332 18.9659C33.5355 18.3636 33.3366 17.6364 33.3366 16.7841C33.3366 16.0341 33.4844 15.4261 33.7798 14.9602C34.0753 14.4886 34.4702 14.1193 34.9645 13.8523C35.4588 13.5852 36.0043 13.3864 36.6009 13.2557C37.2031 13.1193 37.8082 13.0114 38.4162 12.9318C39.2116 12.8295 39.8565 12.7528 40.3509 12.7017C40.8509 12.6449 41.2145 12.5511 41.4418 12.4205C41.6747 12.2898 41.7912 12.0625 41.7912 11.7386V11.6705C41.7912 10.8295 41.5611 10.1761 41.1009 9.71023C40.6463 9.24432 39.956 9.01136 39.0298 9.01136C38.0696 9.01136 37.3168 9.22159 36.7713 9.64205C36.2259 10.0625 35.8423 10.5114 35.6207 10.9886L33.7116 10.3068C34.0526 9.51136 34.5071 8.89205 35.0753 8.44886C35.6491 8 36.2741 7.6875 36.9503 7.51136C37.6321 7.32955 38.3026 7.23864 38.9616 7.23864C39.3821 7.23864 39.8651 7.28977 40.4105 7.39204C40.9616 7.48864 41.4929 7.69034 42.0043 7.99716C42.5213 8.30398 42.9503 8.76705 43.2912 9.38636C43.6321 10.0057 43.8026 10.8352 43.8026 11.875V20.5H41.7912V18.7273H41.6889C41.5526 19.0114 41.3253 19.3153 41.0071 19.6392C40.6889 19.9631 40.2656 20.2386 39.7372 20.4659C39.2088 20.6932 38.5639 20.8068 37.8026 20.8068ZM38.1094 19C38.9048 19 39.5753 18.8438 40.1207 18.5312C40.6719 18.2188 41.0866 17.8153 41.3651 17.321C41.6491 16.8267 41.7912 16.3068 41.7912 15.7614V13.9205C41.706 14.0227 41.5185 14.1165 41.2287 14.2017C40.9446 14.2812 40.6151 14.3523 40.2401 14.4148C39.8707 14.4716 39.5099 14.5227 39.1577 14.5682C38.8111 14.608 38.5298 14.642 38.3139 14.6705C37.7912 14.7386 37.3026 14.8494 36.848 15.0028C36.3991 15.1506 36.0355 15.375 35.7571 15.6761C35.4844 15.9716 35.348 16.375 35.348 16.8864C35.348 17.5852 35.6065 18.1136 36.1236 18.4716C36.6463 18.8239 37.3082 19 38.1094 19ZM47.4737 20.5V7.40909H49.4169V9.45455H49.5874C49.8601 8.75568 50.3004 8.21307 50.9084 7.8267C51.5163 7.43466 52.2464 7.23864 53.0987 7.23864C53.9624 7.23864 54.6811 7.43466 55.255 7.8267C55.8345 8.21307 56.2862 8.75568 56.6101 9.45455H56.7464C57.0817 8.77841 57.5845 8.24148 58.255 7.84375C58.9254 7.44034 59.7294 7.23864 60.6669 7.23864C61.8374 7.23864 62.7947 7.60511 63.5391 8.33807C64.2834 9.06534 64.6555 10.1989 64.6555 11.7386V20.5H62.6442V11.7386C62.6442 10.7727 62.38 10.0824 61.8516 9.66761C61.3232 9.25284 60.701 9.04545 59.9851 9.04545C59.0646 9.04545 58.3516 9.32386 57.8459 9.88068C57.3402 10.4318 57.0874 11.1307 57.0874 11.9773V20.5H55.0419V11.5341C55.0419 10.7898 54.8004 10.1903 54.3175 9.7358C53.8345 9.27557 53.2124 9.04545 52.451 9.04545C51.9283 9.04545 51.4396 9.18466 50.9851 9.46307C50.5362 9.74148 50.1726 10.1278 49.8942 10.6222C49.6214 11.1108 49.4851 11.6761 49.4851 12.3182V20.5H47.4737ZM73.2763 20.7727C72.1854 20.7727 71.2223 20.4972 70.3871 19.946C69.5518 19.3892 68.8984 18.6051 68.4268 17.5938C67.9553 16.5767 67.7195 15.375 67.7195 13.9886C67.7195 12.6136 67.9553 11.4205 68.4268 10.4091C68.8984 9.39773 69.5547 8.61648 70.3956 8.06534C71.2365 7.5142 72.2081 7.23864 73.3104 7.23864C74.1626 7.23864 74.8359 7.38068 75.3303 7.66477C75.8303 7.94318 76.2109 8.26136 76.4723 8.61932C76.7393 8.97159 76.9467 9.26136 77.0945 9.48864H77.2649V3.04545H79.2763V20.5H77.3331V18.4886H77.0945C76.9467 18.7273 76.7365 19.0284 76.4638 19.392C76.1911 19.75 75.8018 20.071 75.2962 20.3551C74.7905 20.6335 74.1172 20.7727 73.2763 20.7727ZM73.549 18.9659C74.3558 18.9659 75.0376 18.7557 75.5945 18.3352C76.1513 17.9091 76.5746 17.321 76.8643 16.571C77.1541 15.8153 77.299 14.9432 77.299 13.9545C77.299 12.9773 77.157 12.1222 76.8729 11.3892C76.5888 10.6506 76.1683 10.0767 75.6115 9.66761C75.0547 9.25284 74.3672 9.04545 73.549 9.04545C72.6967 9.04545 71.9865 9.2642 71.4183 9.7017C70.8558 10.1335 70.4325 10.7216 70.1484 11.4659C69.87 12.2045 69.7308 13.0341 69.7308 13.9545C69.7308 14.8864 69.8729 15.733 70.157 16.4943C70.4467 17.25 70.8729 17.8523 71.4354 18.3011C72.0036 18.7443 72.7081 18.9659 73.549 18.9659ZM83.2393 20.5V7.40909H85.2507V20.5H83.2393ZM84.2621 5.22727C83.87 5.22727 83.532 5.09375 83.2479 4.8267C82.9695 4.55966 82.8303 4.23864 82.8303 3.86364C82.8303 3.48864 82.9695 3.16761 83.2479 2.90057C83.532 2.63352 83.87 2.5 84.2621 2.5C84.6541 2.5 84.9893 2.63352 85.2678 2.90057C85.5518 3.16761 85.6939 3.48864 85.6939 3.86364C85.6939 4.23864 85.5518 4.55966 85.2678 4.8267C84.9893 5.09375 84.6541 5.22727 84.2621 5.22727ZM110.685 11.7727C110.685 13.6136 110.352 15.2045 109.688 16.5455C109.023 17.8864 108.111 18.9205 106.952 19.6477C105.793 20.375 104.469 20.7386 102.98 20.7386C101.491 20.7386 100.168 20.375 99.0085 19.6477C97.8494 18.9205 96.9375 17.8864 96.2727 16.5455C95.608 15.2045 95.2756 13.6136 95.2756 11.7727C95.2756 9.93182 95.608 8.34091 96.2727 7C96.9375 5.65909 97.8494 4.625 99.0085 3.89773C100.168 3.17045 101.491 2.80682 102.98 2.80682C104.469 2.80682 105.793 3.17045 106.952 3.89773C108.111 4.625 109.023 5.65909 109.688 7C110.352 8.34091 110.685 9.93182 110.685 11.7727ZM108.639 11.7727C108.639 10.2614 108.386 8.9858 107.881 7.94602C107.381 6.90625 106.702 6.11932 105.844 5.58523C104.991 5.05114 104.037 4.78409 102.98 4.78409C101.923 4.78409 100.966 5.05114 100.108 5.58523C99.2557 6.11932 98.5767 6.90625 98.071 7.94602C97.571 8.9858 97.321 10.2614 97.321 11.7727C97.321 13.2841 97.571 14.5597 98.071 15.5994C98.5767 16.6392 99.2557 17.4261 100.108 17.9602C100.966 18.4943 101.923 18.7614 102.98 18.7614C104.037 18.7614 104.991 18.4943 105.844 17.9602C106.702 17.4261 107.381 16.6392 107.881 15.5994C108.386 14.5597 108.639 13.2841 108.639 11.7727ZM119.25 25.6818C118.278 25.6818 117.443 25.5568 116.744 25.3068C116.045 25.0625 115.463 24.7386 114.997 24.3352C114.537 23.9375 114.17 23.5114 113.898 23.0568L115.5 21.9318C115.682 22.1705 115.912 22.4432 116.19 22.75C116.469 23.0625 116.849 23.3324 117.332 23.5597C117.821 23.7926 118.46 23.9091 119.25 23.9091C120.307 23.9091 121.179 23.6534 121.866 23.142C122.554 22.6307 122.898 21.8295 122.898 20.7386V18.0795H122.727C122.58 18.3182 122.369 18.6136 122.097 18.9659C121.83 19.3125 121.443 19.6222 120.938 19.8949C120.438 20.1619 119.761 20.2955 118.909 20.2955C117.852 20.2955 116.903 20.0455 116.062 19.5455C115.227 19.0455 114.565 18.3182 114.077 17.3636C113.594 16.4091 113.352 15.25 113.352 13.8864C113.352 12.5455 113.588 11.3778 114.06 10.3835C114.531 9.38352 115.188 8.6108 116.028 8.06534C116.869 7.5142 117.841 7.23864 118.943 7.23864C119.795 7.23864 120.472 7.38068 120.972 7.66477C121.477 7.94318 121.864 8.26136 122.131 8.61932C122.403 8.97159 122.614 9.26136 122.761 9.48864H122.966V7.40909H124.909V20.875C124.909 22 124.653 22.9148 124.142 23.6193C123.636 24.3295 122.955 24.8494 122.097 25.179C121.244 25.5142 120.295 25.6818 119.25 25.6818ZM119.182 18.4886C119.989 18.4886 120.67 18.304 121.227 17.9347C121.784 17.5653 122.207 17.0341 122.497 16.3409C122.787 15.6477 122.932 14.8182 122.932 13.8523C122.932 12.9091 122.79 12.0767 122.506 11.3551C122.222 10.6335 121.801 10.0682 121.244 9.65909C120.688 9.25 120 9.04545 119.182 9.04545C118.33 9.04545 117.619 9.26136 117.051 9.69318C116.489 10.125 116.065 10.7045 115.781 11.4318C115.503 12.1591 115.364 12.9659 115.364 13.8523C115.364 14.7614 115.506 15.5653 115.79 16.2642C116.08 16.9574 116.506 17.5028 117.068 17.9006C117.636 18.2926 118.341 18.4886 119.182 18.4886ZM128.864 20.5V3.04545H130.875V9.48864H131.045C131.193 9.26136 131.398 8.97159 131.659 8.61932C131.926 8.26136 132.307 7.94318 132.801 7.66477C133.301 7.38068 133.977 7.23864 134.83 7.23864C135.932 7.23864 136.903 7.5142 137.744 8.06534C138.585 8.61648 139.241 9.39773 139.713 10.4091C140.185 11.4205 140.42 12.6136 140.42 13.9886C140.42 15.375 140.185 16.5767 139.713 17.5938C139.241 18.6051 138.588 19.3892 137.753 19.946C136.918 20.4972 135.955 20.7727 134.864 20.7727C134.023 20.7727 133.349 20.6335 132.844 20.3551C132.338 20.071 131.949 19.75 131.676 19.392C131.403 19.0284 131.193 18.7273 131.045 18.4886H130.807V20.5H128.864ZM130.841 13.9545C130.841 14.9432 130.986 15.8153 131.276 16.571C131.565 17.321 131.989 17.9091 132.545 18.3352C133.102 18.7557 133.784 18.9659 134.591 18.9659C135.432 18.9659 136.134 18.7443 136.696 18.3011C137.264 17.8523 137.69 17.25 137.974 16.4943C138.264 15.733 138.409 14.8864 138.409 13.9545C138.409 13.0341 138.267 12.2045 137.983 11.4659C137.705 10.7216 137.281 10.1335 136.713 9.7017C136.151 9.2642 135.443 9.04545 134.591 9.04545C133.773 9.04545 133.085 9.25284 132.528 9.66761C131.972 10.0767 131.551 10.6506 131.267 11.3892C130.983 12.1222 130.841 12.9773 130.841 13.9545ZM148.815 20.7727C147.634 20.7727 146.597 20.4915 145.705 19.929C144.818 19.3665 144.125 18.5795 143.625 17.5682C143.131 16.5568 142.884 15.375 142.884 14.0227C142.884 12.6591 143.131 11.4687 143.625 10.4517C144.125 9.43466 144.818 8.64489 145.705 8.08239C146.597 7.51989 147.634 7.23864 148.815 7.23864C149.997 7.23864 151.031 7.51989 151.918 8.08239C152.81 8.64489 153.503 9.43466 153.997 10.4517C154.497 11.4687 154.747 12.6591 154.747 14.0227C154.747 15.375 154.497 16.5568 153.997 17.5682C153.503 18.5795 152.81 19.3665 151.918 19.929C151.031 20.4915 149.997 20.7727 148.815 20.7727ZM148.815 18.9659C149.713 18.9659 150.452 18.7358 151.031 18.2756C151.611 17.8153 152.04 17.2102 152.318 16.4602C152.597 15.7102 152.736 14.8977 152.736 14.0227C152.736 13.1477 152.597 12.3324 152.318 11.5767C152.04 10.821 151.611 10.2102 151.031 9.74432C150.452 9.27841 149.713 9.04545 148.815 9.04545C147.918 9.04545 147.179 9.27841 146.599 9.74432C146.02 10.2102 145.591 10.821 145.312 11.5767C145.034 12.3324 144.895 13.1477 144.895 14.0227C144.895 14.8977 145.034 15.7102 145.312 16.4602C145.591 17.2102 146.02 17.8153 146.599 18.2756C147.179 18.7358 147.918 18.9659 148.815 18.9659ZM159.829 12.625V20.5H157.817V7.40909H159.761V9.45455H159.931C160.238 8.78977 160.704 8.25568 161.329 7.85227C161.954 7.44318 162.761 7.23864 163.749 7.23864C164.636 7.23864 165.411 7.42045 166.076 7.78409C166.741 8.14205 167.258 8.6875 167.627 9.42045C167.996 10.1477 168.181 11.0682 168.181 12.1818V20.5H166.17V12.3182C166.17 11.2898 165.903 10.4886 165.369 9.91477C164.835 9.33523 164.102 9.04545 163.17 9.04545C162.528 9.04545 161.954 9.18466 161.448 9.46307C160.948 9.74148 160.553 10.1477 160.263 10.6818C159.974 11.2159 159.829 11.8636 159.829 12.625ZM173.868 12.625V20.5H171.857V7.40909H173.8V9.45455H173.97C174.277 8.78977 174.743 8.25568 175.368 7.85227C175.993 7.44318 176.8 7.23864 177.788 7.23864C178.675 7.23864 179.45 7.42045 180.115 7.78409C180.78 8.14205 181.297 8.6875 181.666 9.42045C182.036 10.1477 182.22 11.0682 182.22 12.1818V20.5H180.209V12.3182C180.209 11.2898 179.942 10.4886 179.408 9.91477C178.874 9.33523 178.141 9.04545 177.209 9.04545C176.567 9.04545 175.993 9.18466 175.487 9.46307C174.987 9.74148 174.592 10.1477 174.303 10.6818C174.013 11.2159 173.868 11.8636 173.868 12.625ZM189.748 20.8068C188.918 20.8068 188.165 20.6506 187.489 20.3381C186.813 20.0199 186.276 19.5625 185.879 18.9659C185.481 18.3636 185.282 17.6364 185.282 16.7841C185.282 16.0341 185.43 15.4261 185.725 14.9602C186.021 14.4886 186.415 14.1193 186.91 13.8523C187.404 13.5852 187.95 13.3864 188.546 13.2557C189.148 13.1193 189.754 13.0114 190.362 12.9318C191.157 12.8295 191.802 12.7528 192.296 12.7017C192.796 12.6449 193.16 12.5511 193.387 12.4205C193.62 12.2898 193.737 12.0625 193.737 11.7386V11.6705C193.737 10.8295 193.506 10.1761 193.046 9.71023C192.592 9.24432 191.901 9.01136 190.975 9.01136C190.015 9.01136 189.262 9.22159 188.717 9.64205C188.171 10.0625 187.788 10.5114 187.566 10.9886L185.657 10.3068C185.998 9.51136 186.452 8.89205 187.021 8.44886C187.594 8 188.219 7.6875 188.896 7.51136C189.577 7.32955 190.248 7.23864 190.907 7.23864C191.327 7.23864 191.81 7.28977 192.356 7.39204C192.907 7.48864 193.438 7.69034 193.95 7.99716C194.467 8.30398 194.896 8.76705 195.237 9.38636C195.577 10.0057 195.748 10.8352 195.748 11.875V20.5H193.737V18.7273H193.634C193.498 19.0114 193.271 19.3153 192.952 19.6392C192.634 19.9631 192.211 20.2386 191.683 20.4659C191.154 20.6932 190.509 20.8068 189.748 20.8068ZM190.055 19C190.85 19 191.521 18.8438 192.066 18.5312C192.617 18.2188 193.032 17.8153 193.31 17.321C193.594 16.8267 193.737 16.3068 193.737 15.7614V13.9205C193.651 14.0227 193.464 14.1165 193.174 14.2017C192.89 14.2812 192.56 14.3523 192.185 14.4148C191.816 14.4716 191.455 14.5227 191.103 14.5682C190.756 14.608 190.475 14.642 190.259 14.6705C189.737 14.7386 189.248 14.8494 188.793 15.0028C188.344 15.1506 187.981 15.375 187.702 15.6761C187.43 15.9716 187.293 16.375 187.293 16.8864C187.293 17.5852 187.552 18.1136 188.069 18.4716C188.592 18.8239 189.254 19 190.055 19Z" fill="#F6F6F6"/>

<path d="M198.387 2.77679V2.15179H202.75V2.77679H200.921V7.96997H200.216V2.77679H198.387ZM203.838 2.15179H204.679L206.656 6.98133H206.724L208.701 2.15179H209.542V7.96997H208.883V3.54952H208.826L207.008 7.96997H206.372L204.554 3.54952H204.497V7.96997H203.838V2.15179Z" fill="#F6F6F6"/>
</svg>
