<svg width="62" height="62" viewBox="0 0 62 62" fill="none" xmlns="http://www.w3.org/2000/svg">
<rect width="62" height="62" rx="20" fill="white"/>
<path fill-rule="evenodd" clip-rule="evenodd" d="M31 11.625C41.7008 11.625 50.375 20.518 50.375 31.4901C50.375 40.265 44.8299 47.7089 37.1361 50.3381C36.1537 50.5338 35.805 49.9134 35.805 49.3845C35.805 48.7296 35.8282 46.5907 35.8282 43.9324C35.8282 42.0802 35.2083 40.8713 34.5127 40.2552C38.8275 39.763 43.3612 38.0831 43.3612 30.4532C43.3612 28.2832 42.6095 26.5124 41.3656 25.1213C41.5671 24.6195 42.2317 22.5989 41.1757 19.8632C41.1757 19.8632 39.5521 19.3309 35.8534 21.9C34.3054 21.4602 32.6469 21.2389 31 21.2311C29.3531 21.2389 27.6966 21.4602 26.1504 21.9C22.4479 19.3309 20.8204 19.8632 20.8204 19.8632C19.7683 22.5989 20.4329 24.6195 20.6324 25.1213C19.3944 26.5124 18.6368 28.2832 18.6368 30.4532C18.6368 38.0637 23.1609 39.7694 27.4641 40.2712C26.9099 40.7672 26.4081 41.6422 26.2338 42.9268C25.1294 43.4344 22.3239 44.313 20.5956 41.2769C20.5956 41.2769 19.5707 39.3682 17.6254 39.2287C17.6254 39.2287 15.7364 39.2036 17.4937 40.4359C17.4937 40.4359 18.7627 41.0462 19.6443 43.3421C19.6443 43.3421 20.7816 46.8877 26.1718 45.6864C26.1814 47.3468 26.1989 48.9117 26.1989 49.3845C26.1989 49.9096 25.8424 50.5241 24.8756 50.34C17.1759 47.7147 11.625 40.2669 11.625 31.4901C11.625 20.518 20.3011 11.625 31 11.625Z" fill="black"/>
</svg>
