<svg width="62" height="62" viewBox="0 0 62 62" fill="none" xmlns="http://www.w3.org/2000/svg">
<g clip-path="url(#clip0_298_7)">
<rect width="62" height="62" rx="20" fill="white"/>
<path d="M40.6875 11.625H21.3125C15.9844 11.625 11.625 15.9844 11.625 21.3125V40.6875C11.625 46.0156 15.9844 50.375 21.3125 50.375H40.6875C46.0156 50.375 50.375 46.0156 50.375 40.6875V21.3125C50.375 15.9844 46.0156 11.625 40.6875 11.625ZM24.2188 41.6563H20.3438V27.125H24.2188V41.6563ZM22.2813 24.2188C21.2156 24.2188 20.3438 23.3469 20.3438 22.2813C20.3438 21.2156 21.2156 20.3438 22.2813 20.3438C23.3469 20.3438 24.2188 21.2156 24.2188 22.2813C24.2188 23.3469 23.3469 24.2188 22.2813 24.2188ZM41.6563 41.6563H37.7813V34.3906C37.7813 31.9688 36.8125 30.9031 34.875 30.9031L31 31V41.6563H27.125V27.125L34.875 26.9313C38.1688 26.9313 41.6563 28.8687 41.6563 34.2937V41.6563Z" fill="black"/>
</g>
<defs>
<clipPath id="clip0_298_7">
<rect width="62" height="62" rx="20" fill="white"/>
</clipPath>
</defs>
</svg>
