<svg width="40" height="40" viewBox="0 0 40 40" fill="none" xmlns="http://www.w3.org/2000/svg">
<rect width="40" height="40" rx="8.8" fill="#F6F6F6"/>
<path d="M17.487 23.75C17.487 24.164 17.1515 24.5 16.737 24.5C16.3225 24.5 15.987 24.164 15.987 23.75V16.75C15.987 16.4235 16.1985 16.1345 16.5095 16.035C16.822 15.936 17.1605 16.05 17.349 16.3165L25.7375 28.1685C28.3085 26.3545 30 23.3675 30 20C30 14.5 25.5 10 20 10C14.5 10 10 14.5 10 20C10 25.5 14.5 30 20 30C21.596 30 23.103 29.6115 24.445 28.939L17.487 19.108V23.75ZM22.487 16.25C22.487 15.836 22.8225 15.5 23.237 15.5C23.6515 15.5 23.987 15.836 23.987 16.25V23.17L22.487 21.0565V16.25Z" fill="#212121"/>
</svg>
