<svg width="29" height="29" viewBox="0 0 29 29" fill="none" xmlns="http://www.w3.org/2000/svg">
<rect width="29" height="29" rx="14.5" fill="white"/>
<path d="M17.4635 16.6231L17.0839 17.0227C17.0839 17.0227 16.1817 17.9725 13.7192 15.3799C11.2568 12.7874 12.1589 11.8376 12.1589 11.8376L12.3979 11.5859C12.9867 10.966 13.0422 9.97081 12.5285 9.24425L11.4777 7.75801C10.8419 6.85875 9.6133 6.73996 8.88454 7.5072L7.57654 8.88428C7.21519 9.26472 6.97304 9.75788 7.00241 10.305C7.07753 11.7046 7.67559 14.7159 11.0128 18.2294C14.5517 21.9552 17.8723 22.1033 19.2302 21.9692C19.6597 21.9269 20.0332 21.6953 20.3342 21.3783L21.5181 20.1321C22.3172 19.2908 22.0918 17.8485 21.0694 17.26L19.4773 16.3436C18.806 15.9572 17.9882 16.0707 17.4635 16.6231Z" fill="#D4AF37"/>
</svg>