<svg width="43" height="36" viewBox="0 0 43 36" fill="none" xmlns="http://www.w3.org/2000/svg">
<path d="M18.3526 2.56688L16.7924 0C5.99728 7.7643 0 17.1981 0 24.9624C0 32.47 5.15862 36 9.53615 36C15.0536 36 18.9514 30.9936 18.9514 25.7325C18.9514 21.3051 16.3126 17.5185 12.7737 16.1056C11.7547 15.7196 10.7951 15.3992 10.7951 13.5388C10.7951 11.1649 12.4148 7.63699 18.3526 2.56688ZM42.1613 2.56688L40.6011 0C29.925 7.7643 23.8087 17.1981 23.8087 24.9624C23.8087 32.47 29.0863 36 33.4639 36C39.0408 36 43 30.9936 43 25.7325C43 21.3051 40.3017 17.5185 36.6419 16.1056C35.6229 15.7196 34.7228 15.3992 34.7228 13.5388C34.7228 11.1649 36.402 7.63493 42.1594 2.56483L42.1613 2.56688Z" fill="#344365"/>
</svg>
