<svg width="10" height="10" viewBox="0 0 10 10" fill="none" xmlns="http://www.w3.org/2000/svg">
<path fill-rule="evenodd" clip-rule="evenodd" d="M6.76093 3.86342C6.76093 5.46371 5.46367 6.76098 3.86339 6.76098C2.26312 6.76098 0.965848 5.46371 0.965848 3.86342C0.965848 2.26314 2.26312 0.965854 3.86339 0.965854C5.46367 0.965854 6.76093 2.26314 6.76093 3.86342ZM6.23249 6.91545C5.57822 7.424 4.75616 7.72683 3.86339 7.72683C1.7297 7.72683 0 5.99712 0 3.86342C0 1.72971 1.7297 0 3.86339 0C5.99708 0 7.72678 1.72971 7.72678 3.86342C7.72678 4.75619 7.42396 5.57826 6.9154 6.23246L10 9.31708L9.31702 10L6.23249 6.91545Z" fill="white"/>
</svg>
