<svg width="206" height="133" viewBox="0 0 206 133" fill="none" xmlns="http://www.w3.org/2000/svg">
<mask id="mask0_10304_30" style="mask-type:luminance" maskUnits="userSpaceOnUse" x="0" y="0" width="206" height="18">
<path d="M0 8.89055C0 3.98044 3.98045 0 8.89054 0H196.275C201.185 0 205.165 3.98044 205.165 8.89055V17.3129H0V8.89055Z" fill="white"/>
</mask>
<g mask="url(#mask0_10304_30)">
<path d="M205.165 17.8068H0V16.8189H205.165V17.8068Z" fill="#201E19" fill-opacity="0.2"/>
</g>
<path d="M79.6401 35.6737C79.6401 35.0449 80.1225 34.5352 80.7164 34.5352H124.352C124.946 34.5352 125.428 35.0449 125.428 35.6737C125.428 36.3026 124.946 36.8123 124.352 36.8123H80.7164C80.1225 36.8123 79.6401 36.3026 79.6401 35.6737Z" fill="#F8F8F8" fill-opacity="0.2"/>
<path d="M49.5918 42.8754C49.5918 41.201 50.875 39.8438 52.4578 39.8438H152.611C154.193 39.8438 155.477 41.201 155.477 42.8754V46.3002C155.477 47.9745 154.193 49.3319 152.611 49.3319H52.4578C50.875 49.3319 49.5918 47.9745 49.5918 46.3002V42.8754Z" fill="#D4DCEB"/>
<path d="M36.0884 55.3955C36.0884 53.7211 37.3715 52.3638 38.9544 52.3638H166.114C167.697 52.3638 168.98 53.7211 168.98 55.3955V63.1848C168.98 64.8592 167.697 66.2166 166.114 66.2166H38.9544C37.3715 66.2166 36.0884 64.8592 36.0884 63.1848V55.3955Z" fill="#D4DCEB"/>
<path d="M91.0703 73.7957C91.0703 71.2841 92.9951 69.248 95.3693 69.248H109.699C112.073 69.248 113.998 71.2841 113.998 73.7957C113.998 76.3072 112.073 78.3433 109.699 78.3433H95.3693C92.9951 78.3433 91.0703 76.3072 91.0703 73.7957Z" fill="#D4DCEB"/>
<path d="M183.598 93.0884H21.9079C20.1654 93.0884 18.7529 93.0032 18.7529 92.8981V87.9896C18.7529 87.8845 20.1654 87.7993 21.9079 87.7993H183.598C185.34 87.7993 186.753 87.8845 186.753 87.9896V92.8981C186.753 93.0032 185.34 93.0884 183.598 93.0884Z" fill="#D4DCEB"/>
<path d="M183.598 101.551H21.9079C20.1654 101.551 18.7529 101.466 18.7529 101.36V96.452C18.7529 96.3469 20.1654 96.2617 21.9079 96.2617H183.598C185.34 96.2617 186.753 96.3469 186.753 96.452V101.36C186.753 101.466 185.34 101.551 183.598 101.551Z" fill="#D4DCEB"/>
<path d="M183.845 132.228H22.1549C20.4125 132.228 19 132.193 19 132.151V130.188C19 130.146 20.4125 130.112 22.1549 130.112H183.845C185.587 130.112 187 130.146 187 130.188V132.151C187 132.193 185.587 132.228 183.845 132.228Z" fill="#D4DCEB"/>
<path d="M9.46495 11.2326C10.8263 11.2326 11.9299 10.0612 11.9299 8.61628C11.9299 7.17135 10.8263 6 9.46495 6C8.1036 6 7 7.17135 7 8.61628C7 10.0612 8.1036 11.2326 9.46495 11.2326Z" fill="#C3C9CB"/>
<path d="M16.3946 11.2326C17.756 11.2326 18.8596 10.0612 18.8596 8.61628C18.8596 7.17135 17.756 6 16.3946 6C15.0333 6 13.9297 7.17135 13.9297 8.61628C13.9297 10.0612 15.0333 11.2326 16.3946 11.2326Z" fill="#C3C9CB"/>
<path d="M23.3248 11.2326C24.6862 11.2326 25.7898 10.0612 25.7898 8.61628C25.7898 7.17135 24.6862 6 23.3248 6C21.9635 6 20.8599 7.17135 20.8599 8.61628C20.8599 10.0612 21.9635 11.2326 23.3248 11.2326Z" fill="#C3C9CB"/>
<path d="M190.19 6H41.2628C39.8969 6 38.7896 7.17135 38.7896 8.61628C38.7896 10.0612 39.8969 11.2326 41.2628 11.2326H190.19C191.556 11.2326 192.663 10.0612 192.663 8.61628C192.663 7.17135 191.556 6 190.19 6Z" fill="#D4DCEB"/>
</svg>
