<svg width="306" height="128" viewBox="0 0 306 128" fill="none" xmlns="http://www.w3.org/2000/svg">
<rect width="305.326" height="128" fill="#171A22"/>
<g opacity="0.7">
<path d="M88.5 18H13C9.68629 18 7 20.6863 7 24V104C7 107.314 9.68629 110 13 110H88.5C91.8137 110 94.5 107.314 94.5 104V64V24C94.5 20.6863 91.8137 18 88.5 18Z" fill="#FAFAFA"/>
<path d="M88.5 18.25H13C9.82436 18.25 7.25 20.8244 7.25 24V104C7.25 107.176 9.82436 109.75 13 109.75H88.5C91.6756 109.75 94.25 107.176 94.25 104V24C94.25 20.8244 91.6756 18.25 88.5 18.25Z" stroke="#516CA7" stroke-opacity="0.35" stroke-width="0.5"/>
<path d="M15 28.8335L16.5 30.3335L19 27.3335M13 31.2336V26.4336C13 25.8735 13 25.5933 13.109 25.3794C13.2049 25.1912 13.3577 25.0384 13.5459 24.9425C13.7598 24.8335 14.04 24.8335 14.6001 24.8335H19.4001C19.9602 24.8335 20.2398 24.8335 20.4537 24.9425C20.6419 25.0384 20.7952 25.1912 20.8911 25.3794C21 25.5931 21 25.873 21 26.432V31.2353C21 31.7943 21 32.0737 20.8911 32.2874C20.7952 32.4756 20.6419 32.6287 20.4537 32.7246C20.24 32.8335 19.9605 32.8335 19.4015 32.8335H14.5985C14.0395 32.8335 13.7596 32.8335 13.5459 32.7246C13.3577 32.6287 13.2049 32.4756 13.109 32.2874C13 32.0735 13 31.7937 13 31.2336Z" stroke="#516CA7" stroke-linecap="round" stroke-linejoin="round"/>
<path d="M84.5 58H17.5C14.4624 58 12 60.4624 12 63.5C12 66.5376 14.4624 69 17.5 69H84.5C87.5376 69 90 66.5376 90 63.5C90 60.4624 87.5376 58 84.5 58Z" fill="#E1E4E5"/>
<path d="M84.5 77H17.5C14.4624 77 12 79.4624 12 82.5C12 85.5376 14.4624 88 17.5 88H84.5C87.5376 88 90 85.5376 90 82.5C90 79.4624 87.5376 77 84.5 77Z" fill="#E1E4E5"/>
<path d="M87 96H15C13.3431 96 12 97.3431 12 99C12 100.657 13.3431 102 15 102H87C88.6569 102 90 100.657 90 99C90 97.3431 88.6569 96 87 96Z" fill="#E1E4E5"/>
</g>
<path d="M201.261 6H106.065C101.887 6 98.5 9.38706 98.5 13.5652V114.435C98.5 118.613 101.887 122 106.065 122H201.261C205.439 122 208.826 118.613 208.826 114.435V13.5652C208.826 9.38706 205.439 6 201.261 6Z" fill="#FAFAFA"/>
<path d="M201.261 6.31543H106.065C102.061 6.31543 98.8154 9.56137 98.8154 13.5654V114.435C98.8154 118.439 102.061 121.685 106.065 121.685H201.261C205.265 121.685 208.511 118.439 208.511 114.435V13.5654C208.511 9.56137 205.265 6.31543 201.261 6.31543Z" stroke="#516CA7" stroke-opacity="0.8"/>
<path d="M108.753 23.395C107.987 23.395 107.26 23.2739 106.574 23.0319C105.899 22.7797 105.354 22.4468 104.94 22.0332L105.47 21.1708C105.813 21.5239 106.272 21.8164 106.847 22.0484C107.432 22.2804 108.067 22.3964 108.753 22.3964C109.631 22.3964 110.302 22.2047 110.766 21.8214C111.24 21.4381 111.477 20.9237 111.477 20.2781C111.477 19.6326 111.245 19.1181 110.781 18.7348C110.327 18.3515 109.606 18.1599 108.617 18.1599H107.861V17.3579L111.129 13.2576L111.28 13.6812H105.379V12.7129H112.188V13.4846L108.92 17.5849L108.39 17.2369H108.799C110.07 17.2369 111.018 17.5193 111.643 18.0842C112.279 18.6491 112.596 19.3753 112.596 20.263C112.596 20.8581 112.455 21.3927 112.173 21.8668C111.89 22.3409 111.462 22.7141 110.887 22.9865C110.322 23.2588 109.611 23.395 108.753 23.395ZM118.655 23.395C117.838 23.395 117.112 23.1832 116.477 22.7595C115.841 22.3258 115.342 21.7105 114.979 20.9136C114.616 20.1066 114.434 19.1383 114.434 18.0086C114.434 16.8788 114.616 15.9155 114.979 15.1186C115.342 14.3117 115.841 13.6964 116.477 13.2727C117.112 12.839 117.838 12.6221 118.655 12.6221C119.472 12.6221 120.199 12.839 120.834 13.2727C121.47 13.6964 121.969 14.3117 122.332 15.1186C122.705 15.9155 122.892 16.8788 122.892 18.0086C122.892 19.1383 122.705 20.1066 122.332 20.9136C121.969 21.7105 121.47 22.3258 120.834 22.7595C120.199 23.1832 119.472 23.395 118.655 23.395ZM118.655 22.3964C119.281 22.3964 119.825 22.2299 120.289 21.8971C120.753 21.5541 121.117 21.0599 121.379 20.4143C121.641 19.7586 121.772 18.9567 121.772 18.0086C121.772 17.0604 121.641 16.2635 121.379 15.6179C121.117 14.9623 120.753 14.468 120.289 14.1352C119.825 13.7922 119.281 13.6207 118.655 13.6207C118.05 13.6207 117.511 13.7922 117.036 14.1352C116.562 14.468 116.194 14.9623 115.932 15.6179C115.67 16.2635 115.539 17.0604 115.539 18.0086C115.539 18.9567 115.67 19.7586 115.932 20.4143C116.194 21.0599 116.562 21.5541 117.036 21.8971C117.511 22.2299 118.05 22.3964 118.655 22.3964ZM126.177 23.3042L133.409 12.7129H134.302L127.07 23.3042H126.177ZM126.994 18.3868C126.52 18.3868 126.101 18.2708 125.738 18.0388C125.375 17.7967 125.093 17.4588 124.891 17.0251C124.699 16.5913 124.603 16.087 124.603 15.512C124.603 14.9371 124.699 14.4327 124.891 13.999C125.093 13.5652 125.375 13.2324 125.738 13.0004C126.101 12.7583 126.52 12.6372 126.994 12.6372C127.468 12.6372 127.882 12.7583 128.235 13.0004C128.598 13.2324 128.88 13.5652 129.082 13.999C129.284 14.4327 129.385 14.9371 129.385 15.512C129.385 16.087 129.284 16.5913 129.082 17.0251C128.88 17.4588 128.598 17.7967 128.235 18.0388C127.882 18.2708 127.468 18.3868 126.994 18.3868ZM126.994 17.7059C127.488 17.7059 127.882 17.5143 128.174 17.131C128.477 16.7376 128.628 16.1979 128.628 15.512C128.628 14.8261 128.477 14.2915 128.174 13.9082C127.882 13.5148 127.488 13.3181 126.994 13.3181C126.49 13.3181 126.091 13.5148 125.799 13.9082C125.506 14.2915 125.36 14.8261 125.36 15.512C125.36 16.1979 125.506 16.7376 125.799 17.131C126.091 17.5143 126.49 17.7059 126.994 17.7059ZM133.485 23.3799C133.021 23.3799 132.607 23.2639 132.244 23.0319C131.881 22.7898 131.599 22.4519 131.397 22.0181C131.195 21.5844 131.094 21.08 131.094 20.5051C131.094 19.9301 131.195 19.4258 131.397 18.992C131.599 18.5583 131.881 18.2254 132.244 17.9934C132.607 17.7513 133.021 17.6303 133.485 17.6303C133.969 17.6303 134.388 17.7513 134.741 17.9934C135.104 18.2254 135.381 18.5583 135.573 18.992C135.775 19.4258 135.875 19.9301 135.875 20.5051C135.875 21.08 135.775 21.5844 135.573 22.0181C135.381 22.4519 135.104 22.7898 134.741 23.0319C134.388 23.2639 133.969 23.3799 133.485 23.3799ZM133.485 22.699C133.979 22.699 134.373 22.5073 134.665 22.124C134.968 21.7306 135.119 21.191 135.119 20.5051C135.119 19.8192 134.968 19.2846 134.665 18.9012C134.373 18.5079 133.979 18.3112 133.485 18.3112C132.991 18.3112 132.592 18.5079 132.29 18.9012C131.997 19.2846 131.851 19.8192 131.851 20.5051C131.851 21.191 131.997 21.7306 132.29 22.124C132.592 22.5073 132.991 22.699 133.485 22.699Z" fill="#516CA7"/>
<path d="M109.062 22.8877C109.037 22.8888 109.013 22.8888 108.988 22.8896C109.013 22.8887 109.037 22.889 109.062 22.8877ZM118.335 13.1357C117.756 13.1881 117.224 13.3837 116.749 13.7256C116.18 14.1249 115.758 14.705 115.468 15.4297C115.175 16.1523 115.039 17.0179 115.039 18.0088C115.039 18.9997 115.175 19.8686 115.467 20.5996L115.468 20.6025C115.759 21.3181 116.179 21.8941 116.743 22.3018L116.75 22.3066C117.242 22.6514 117.793 22.8439 118.394 22.8867H118.387C117.861 22.8518 117.389 22.7119 116.963 22.4717L116.754 22.3438C116.275 22.0155 115.876 21.5625 115.563 20.9697L115.434 20.7061C115.108 19.9791 114.934 19.0852 114.934 18.0088C114.934 16.9309 115.108 16.0421 115.434 15.3262L115.435 15.3232C115.766 14.5883 116.209 14.0521 116.754 13.6885L116.759 13.6855C117.224 13.3684 117.746 13.1842 118.335 13.1357ZM110.548 18.0059C110.856 18.1227 111.108 18.2739 111.308 18.4551L111.311 18.458C111.835 18.9231 112.096 19.5106 112.096 20.2627C112.096 20.7748 111.976 21.2198 111.744 21.6104C111.519 21.9871 111.172 22.2978 110.673 22.5342L110.669 22.5361C110.273 22.7272 109.77 22.8464 109.147 22.8818C109.919 22.8305 110.58 22.6216 111.083 22.2061C111.68 21.7219 111.977 21.0628 111.977 20.2783C111.977 19.4975 111.688 18.8382 111.102 18.3525H111.103C110.939 18.2142 110.753 18.0999 110.548 18.0059ZM119.091 13.1475C119.634 13.2096 120.119 13.3895 120.552 13.6855L120.557 13.6885C121.103 14.0521 121.545 14.5885 121.875 15.3232L121.879 15.3301C122.214 16.0447 122.392 16.9324 122.392 18.0088C122.392 19.0847 122.214 19.978 121.878 20.7041L121.876 20.7061C121.547 21.4299 121.105 21.9685 120.556 22.3438C120.148 22.6163 119.693 22.7893 119.187 22.8594C119.697 22.7857 120.164 22.6022 120.581 22.3037L120.586 22.2988C121.138 21.8911 121.553 21.3159 121.842 20.6025L121.843 20.5996C122.135 19.8685 122.272 18.9998 122.272 18.0088C122.272 17.1416 122.168 16.3704 121.945 15.707L121.842 15.4297C121.553 14.7073 121.137 14.128 120.58 13.7285C120.138 13.404 119.639 13.213 119.091 13.1475ZM105.589 21.9307C105.901 22.1574 106.26 22.3503 106.66 22.5117L106.663 22.5127C107.111 22.6904 107.583 22.8042 108.077 22.8584C107.613 22.8095 107.169 22.7106 106.743 22.5605C106.28 22.3869 105.896 22.1771 105.585 21.9355L105.589 21.9307ZM111.688 13.2129V13.3096L111.681 13.3184L111.644 13.2129H111.688Z" stroke="#516CA7" stroke-opacity="0.8"/>
<path d="M195.902 63.4785H111.424C107.594 63.4785 104.489 66.5833 104.489 70.4133V70.4133C104.489 74.2433 107.594 77.3481 111.424 77.3481H195.902C199.732 77.3481 202.837 74.2433 202.837 70.4133C202.837 66.5833 199.732 63.4785 195.902 63.4785Z" fill="#E1E4E5"/>
<path d="M199.054 83.6523H108.271C106.182 83.6523 104.489 85.3459 104.489 87.435C104.489 89.524 106.182 91.2176 108.271 91.2176H199.054C201.143 91.2176 202.837 89.524 202.837 87.435C202.837 85.3459 201.143 83.6523 199.054 83.6523Z" fill="#E1E4E5"/>
<path d="M199.054 97.522H108.271C106.182 97.522 104.489 99.2155 104.489 101.305C104.489 103.394 106.182 105.087 108.271 105.087H199.054C201.143 105.087 202.837 103.394 202.837 101.305C202.837 99.2155 201.143 97.522 199.054 97.522Z" fill="#E1E4E5"/>
<g opacity="0.5">
<path d="M294.326 18H218.826C215.512 18 212.826 20.6863 212.826 24V104C212.826 107.314 215.512 110 218.826 110H294.326C297.64 110 300.326 107.314 300.326 104V24C300.326 20.6863 297.64 18 294.326 18Z" fill="#FAFAFA" stroke="#344365" stroke-opacity="0.35"/>
<path d="M218 25.8015V23.0015H219.224C219.528 23.0015 219.795 23.0602 220.024 23.1775C220.254 23.2948 220.432 23.4575 220.56 23.6655C220.688 23.8735 220.752 24.1188 220.752 24.4015C220.752 24.6815 220.688 24.9268 220.56 25.1375C220.432 25.3455 220.254 25.5082 220.024 25.6255C219.795 25.7428 219.528 25.8015 219.224 25.8015H218ZM218.52 25.3615H219.2C219.411 25.3615 219.592 25.3215 219.744 25.2415C219.899 25.1615 220.018 25.0495 220.1 24.9055C220.186 24.7615 220.228 24.5935 220.228 24.4015C220.228 24.2068 220.186 24.0388 220.1 23.8975C220.018 23.7535 219.899 23.6415 219.744 23.5615C219.592 23.4815 219.411 23.4415 219.2 23.4415H218.52V25.3615ZM222.161 25.8295C221.98 25.8295 221.82 25.7962 221.681 25.7295C221.542 25.6602 221.434 25.5562 221.357 25.4175C221.28 25.2762 221.241 25.0988 221.241 24.8855V23.6655H221.741V24.8175C221.741 25.0095 221.784 25.1535 221.869 25.2495C221.957 25.3428 222.081 25.3895 222.241 25.3895C222.358 25.3895 222.46 25.3655 222.545 25.3175C222.633 25.2695 222.701 25.1975 222.749 25.1015C222.8 25.0055 222.825 24.8868 222.825 24.7455V23.6655H223.325V25.8015H222.849V25.2255L222.933 25.4015C222.861 25.5402 222.756 25.6468 222.617 25.7215C222.478 25.7935 222.326 25.8295 222.161 25.8295ZM224.984 25.8295C224.746 25.8295 224.538 25.7828 224.36 25.6895C224.184 25.5935 224.046 25.4628 223.948 25.2975C223.852 25.1322 223.804 24.9442 223.804 24.7335C223.804 24.5202 223.85 24.3322 223.944 24.1695C224.04 24.0042 224.17 23.8748 224.336 23.7815C224.504 23.6882 224.694 23.6415 224.908 23.6415C225.116 23.6415 225.301 23.6868 225.464 23.7775C225.626 23.8682 225.754 23.9962 225.848 24.1615C225.941 24.3268 225.988 24.5215 225.988 24.7455C225.988 24.7668 225.986 24.7908 225.984 24.8175C225.984 24.8442 225.982 24.8695 225.98 24.8935H224.2V24.5615H225.716L225.52 24.6655C225.522 24.5428 225.497 24.4348 225.444 24.3415C225.39 24.2482 225.317 24.1748 225.224 24.1215C225.133 24.0682 225.028 24.0415 224.908 24.0415C224.785 24.0415 224.677 24.0682 224.584 24.1215C224.493 24.1748 224.421 24.2495 224.368 24.3455C224.317 24.4388 224.292 24.5495 224.292 24.6775V24.7575C224.292 24.8855 224.321 24.9988 224.38 25.0975C224.438 25.1962 224.521 25.2722 224.628 25.3255C224.734 25.3788 224.857 25.4055 224.996 25.4055C225.116 25.4055 225.224 25.3868 225.32 25.3495C225.416 25.3122 225.501 25.2535 225.576 25.1735L225.844 25.4815C225.748 25.5935 225.626 25.6802 225.48 25.7415C225.336 25.8002 225.17 25.8295 224.984 25.8295ZM228.477 25.8295C228.272 25.8295 228.087 25.7842 227.921 25.6935C227.759 25.6002 227.631 25.4722 227.537 25.3095C227.444 25.1468 227.397 24.9548 227.397 24.7335C227.397 24.5122 227.444 24.3202 227.537 24.1575C227.631 23.9948 227.759 23.8682 227.921 23.7775C228.087 23.6868 228.272 23.6415 228.477 23.6415C228.656 23.6415 228.816 23.6815 228.957 23.7615C229.099 23.8388 229.211 23.9575 229.293 24.1175C229.376 24.2775 229.417 24.4828 229.417 24.7335C229.417 24.9815 229.377 25.1868 229.297 25.3495C229.217 25.5095 229.107 25.6295 228.965 25.7095C228.824 25.7895 228.661 25.8295 228.477 25.8295ZM228.537 25.4015C228.657 25.4015 228.764 25.3748 228.857 25.3215C228.953 25.2682 229.029 25.1908 229.085 25.0895C229.144 24.9882 229.173 24.8695 229.173 24.7335C229.173 24.5948 229.144 24.4762 229.085 24.3775C229.029 24.2762 228.953 24.1988 228.857 24.1455C228.764 24.0922 228.657 24.0655 228.537 24.0655C228.417 24.0655 228.309 24.0922 228.213 24.1455C228.12 24.1988 228.044 24.2762 227.985 24.3775C227.929 24.4762 227.901 24.5948 227.901 24.7335C227.901 24.8695 227.929 24.9882 227.985 25.0895C228.044 25.1908 228.12 25.2682 228.213 25.3215C228.309 25.3748 228.417 25.4015 228.537 25.4015ZM229.185 25.8015V25.2975L229.205 24.7295L229.165 24.1615V22.8335H229.661V25.8015H229.185ZM231.635 25.8015V25.3695L231.607 25.2775V24.5215C231.607 24.3748 231.563 24.2615 231.475 24.1815C231.387 24.0988 231.254 24.0575 231.075 24.0575C230.955 24.0575 230.837 24.0762 230.719 24.1135C230.605 24.1508 230.507 24.2028 230.427 24.2695L230.231 23.9055C230.346 23.8175 230.482 23.7522 230.639 23.7095C230.799 23.6642 230.965 23.6415 231.135 23.6415C231.445 23.6415 231.683 23.7162 231.851 23.8655C232.022 24.0122 232.107 24.2402 232.107 24.5495V25.8015H231.635ZM230.963 25.8295C230.803 25.8295 230.663 25.8028 230.543 25.7495C230.423 25.6935 230.33 25.6175 230.263 25.5215C230.199 25.4228 230.167 25.3122 230.167 25.1895C230.167 25.0695 230.195 24.9615 230.251 24.8655C230.31 24.7695 230.405 24.6935 230.535 24.6375C230.666 24.5815 230.839 24.5535 231.055 24.5535H231.675V24.8855H231.091C230.921 24.8855 230.806 24.9135 230.747 24.9695C230.689 25.0228 230.659 25.0895 230.659 25.1695C230.659 25.2602 230.695 25.3322 230.767 25.3855C230.839 25.4388 230.939 25.4655 231.067 25.4655C231.19 25.4655 231.299 25.4375 231.395 25.3815C231.494 25.3255 231.565 25.2428 231.607 25.1335L231.691 25.4335C231.643 25.5588 231.557 25.6562 231.431 25.7255C231.309 25.7948 231.153 25.8295 230.963 25.8295ZM233.553 25.8295C233.318 25.8295 233.137 25.7695 233.009 25.6495C232.881 25.5268 232.817 25.3468 232.817 25.1095V23.1935H233.317V25.0975C233.317 25.1988 233.342 25.2775 233.393 25.3335C233.446 25.3895 233.52 25.4175 233.613 25.4175C233.725 25.4175 233.818 25.3882 233.893 25.3295L234.033 25.6855C233.974 25.7335 233.902 25.7695 233.817 25.7935C233.732 25.8175 233.644 25.8295 233.553 25.8295ZM232.465 24.0815V23.6815H233.889V24.0815H232.465ZM235.378 25.8295C235.141 25.8295 234.933 25.7828 234.754 25.6895C234.578 25.5935 234.441 25.4628 234.342 25.2975C234.246 25.1322 234.198 24.9442 234.198 24.7335C234.198 24.5202 234.245 24.3322 234.338 24.1695C234.434 24.0042 234.565 23.8748 234.73 23.7815C234.898 23.6882 235.089 23.6415 235.302 23.6415C235.51 23.6415 235.695 23.6868 235.858 23.7775C236.021 23.8682 236.149 23.9962 236.242 24.1615C236.335 24.3268 236.382 24.5215 236.382 24.7455C236.382 24.7668 236.381 24.7908 236.378 24.8175C236.378 24.8442 236.377 24.8695 236.374 24.8935H234.594V24.5615H236.11L235.914 24.6655C235.917 24.5428 235.891 24.4348 235.838 24.3415C235.785 24.2482 235.711 24.1748 235.618 24.1215C235.527 24.0682 235.422 24.0415 235.302 24.0415C235.179 24.0415 235.071 24.0682 234.978 24.1215C234.887 24.1748 234.815 24.2495 234.762 24.3455C234.711 24.4388 234.686 24.5495 234.686 24.6775V24.7575C234.686 24.8855 234.715 24.9988 234.774 25.0975C234.833 25.1962 234.915 25.2722 235.022 25.3255C235.129 25.3788 235.251 25.4055 235.39 25.4055C235.51 25.4055 235.618 25.3868 235.714 25.3495C235.81 25.3122 235.895 25.2535 235.97 25.1735L236.238 25.4815C236.142 25.5935 236.021 25.6802 235.874 25.7415C235.73 25.8002 235.565 25.8295 235.378 25.8295ZM237.022 24.3055C236.932 24.3055 236.854 24.2748 236.79 24.2135C236.726 24.1495 236.694 24.0695 236.694 23.9735C236.694 23.8722 236.726 23.7922 236.79 23.7335C236.854 23.6722 236.932 23.6415 237.022 23.6415C237.113 23.6415 237.19 23.6722 237.254 23.7335C237.318 23.7922 237.35 23.8722 237.35 23.9735C237.35 24.0695 237.318 24.1495 237.254 24.2135C237.19 24.2748 237.113 24.3055 237.022 24.3055ZM237.022 25.8295C236.932 25.8295 236.854 25.7988 236.79 25.7375C236.726 25.6735 236.694 25.5935 236.694 25.4975C236.694 25.3962 236.726 25.3162 236.79 25.2575C236.854 25.1962 236.932 25.1655 237.022 25.1655C237.113 25.1655 237.19 25.1962 237.254 25.2575C237.318 25.3162 237.35 25.3962 237.35 25.4975C237.35 25.5935 237.318 25.6735 237.254 25.7375C237.19 25.7988 237.113 25.8295 237.022 25.8295Z" fill="#2A3626" fill-opacity="0.8"/>
<path d="M290.326 53.5H223.326C220.289 53.5 217.826 55.9624 217.826 59C217.826 62.0376 220.289 64.5 223.326 64.5H290.326C293.364 64.5 295.826 62.0376 295.826 59C295.826 55.9624 293.364 53.5 290.326 53.5Z" fill="#E1E4E5"/>
<path d="M290.326 72.5H223.326C220.289 72.5 217.826 74.9624 217.826 78C217.826 81.0376 220.289 83.5 223.326 83.5H290.326C293.364 83.5 295.826 81.0376 295.826 78C295.826 74.9624 293.364 72.5 290.326 72.5Z" fill="#E1E4E5"/>
<path d="M292.826 91.5H220.826C219.169 91.5 217.826 92.8431 217.826 94.5C217.826 96.1569 219.169 97.5 220.826 97.5H292.826C294.483 97.5 295.826 96.1569 295.826 94.5C295.826 92.8431 294.483 91.5 292.826 91.5Z" fill="#E1E4E5"/>
</g>
<path d="M13.984 46V37.54H16.972C17.9 37.54 18.688 37.704 19.336 38.032C19.984 38.352 20.476 38.828 20.812 39.46C21.156 40.084 21.328 40.852 21.328 41.764C21.328 42.676 21.156 43.448 20.812 44.08C20.476 44.704 19.984 45.18 19.336 45.508C18.688 45.836 17.9 46 16.972 46H13.984ZM15.232 44.956H16.9C17.948 44.956 18.732 44.692 19.252 44.164C19.772 43.628 20.032 42.828 20.032 41.764C20.032 40.7 19.768 39.904 19.24 39.376C18.72 38.848 17.94 38.584 16.9 38.584H15.232V44.956ZM25.6117 46.108C24.9717 46.108 24.4197 45.988 23.9557 45.748C23.4997 45.5 23.1437 45.152 22.8877 44.704C22.6397 44.248 22.5157 43.708 22.5157 43.084C22.5157 42.476 22.6397 41.944 22.8877 41.488C23.1357 41.032 23.4757 40.676 23.9077 40.42C24.3397 40.164 24.8317 40.036 25.3837 40.036C25.9277 40.036 26.3917 40.156 26.7757 40.396C27.1677 40.628 27.4677 40.96 27.6757 41.392C27.8837 41.824 27.9877 42.34 27.9877 42.94V43.348H23.4757V42.604H27.1717L26.9677 42.772C26.9677 42.172 26.8357 41.708 26.5717 41.38C26.3077 41.052 25.9277 40.888 25.4317 40.888C25.0557 40.888 24.7357 40.976 24.4717 41.152C24.2157 41.328 24.0197 41.572 23.8837 41.884C23.7477 42.196 23.6797 42.56 23.6797 42.976V43.048C23.6797 43.512 23.7517 43.904 23.8957 44.224C24.0477 44.536 24.2677 44.772 24.5557 44.932C24.8437 45.092 25.1997 45.172 25.6237 45.172C25.9597 45.172 26.2877 45.12 26.6077 45.016C26.9357 44.904 27.2437 44.732 27.5317 44.5L27.8917 45.34C27.6277 45.58 27.2877 45.768 26.8717 45.904C26.4557 46.04 26.0357 46.108 25.6117 46.108ZM31.361 46.108C31.049 46.108 30.745 46.08 30.449 46.024C30.153 45.968 29.881 45.888 29.633 45.784C29.385 45.68 29.165 45.552 28.973 45.4L29.321 44.584C29.521 44.72 29.733 44.84 29.957 44.944C30.181 45.04 30.413 45.112 30.653 45.16C30.901 45.208 31.141 45.232 31.373 45.232C31.797 45.232 32.117 45.156 32.333 45.004C32.549 44.852 32.657 44.648 32.657 44.392C32.657 44.184 32.585 44.024 32.441 43.912C32.297 43.792 32.081 43.7 31.793 43.636L30.653 43.408C30.157 43.304 29.781 43.12 29.525 42.856C29.269 42.592 29.141 42.256 29.141 41.848C29.141 41.48 29.241 41.16 29.441 40.888C29.641 40.616 29.921 40.408 30.281 40.264C30.641 40.112 31.057 40.036 31.529 40.036C31.801 40.036 32.065 40.064 32.321 40.12C32.577 40.176 32.817 40.256 33.041 40.36C33.273 40.464 33.469 40.596 33.629 40.756L33.281 41.572C33.129 41.436 32.953 41.32 32.753 41.224C32.561 41.128 32.361 41.056 32.153 41.008C31.945 40.952 31.737 40.924 31.529 40.924C31.105 40.924 30.785 41.004 30.569 41.164C30.361 41.316 30.257 41.524 30.257 41.788C30.257 41.988 30.321 42.152 30.449 42.28C30.577 42.408 30.777 42.5 31.049 42.556L32.189 42.784C32.709 42.888 33.101 43.064 33.365 43.312C33.637 43.56 33.773 43.896 33.773 44.32C33.773 44.688 33.673 45.008 33.473 45.28C33.273 45.552 32.989 45.76 32.621 45.904C32.261 46.04 31.841 46.108 31.361 46.108ZM35.0135 38.788V37.528H36.4295V38.788H35.0135ZM35.1215 46V40.144H36.3335V46H35.1215ZM40.6915 48.268C40.1635 48.268 39.6715 48.204 39.2155 48.076C38.7595 47.948 38.3555 47.756 38.0035 47.5L38.3755 46.636C38.6075 46.788 38.8435 46.916 39.0835 47.02C39.3315 47.132 39.5795 47.212 39.8275 47.26C40.0835 47.308 40.3435 47.332 40.6075 47.332C41.1675 47.332 41.5875 47.188 41.8675 46.9C42.1475 46.62 42.2875 46.204 42.2875 45.652V44.428H42.3955C42.2755 44.868 42.0235 45.216 41.6395 45.472C41.2555 45.728 40.8115 45.856 40.3075 45.856C39.7795 45.856 39.3195 45.736 38.9275 45.496C38.5355 45.248 38.2315 44.908 38.0155 44.476C37.7995 44.036 37.6915 43.524 37.6915 42.94C37.6915 42.356 37.7995 41.848 38.0155 41.416C38.2315 40.984 38.5355 40.648 38.9275 40.408C39.3195 40.16 39.7795 40.036 40.3075 40.036C40.8195 40.036 41.2635 40.164 41.6395 40.42C42.0235 40.676 42.2715 41.024 42.3835 41.464H42.2875V40.144H43.4635V45.508C43.4635 46.116 43.3595 46.624 43.1515 47.032C42.9435 47.448 42.6315 47.756 42.2155 47.956C41.8075 48.164 41.2995 48.268 40.6915 48.268ZM40.5955 44.908C41.1155 44.908 41.5235 44.732 41.8195 44.38C42.1235 44.028 42.2755 43.548 42.2755 42.94C42.2755 42.34 42.1235 41.864 41.8195 41.512C41.5235 41.16 41.1155 40.984 40.5955 40.984C40.0835 40.984 39.6755 41.16 39.3715 41.512C39.0675 41.864 38.9155 42.34 38.9155 42.94C38.9155 43.548 39.0675 44.028 39.3715 44.38C39.6755 44.732 40.0835 44.908 40.5955 44.908ZM45.1645 46V40.144H46.3405V41.392H46.2085C46.3845 40.944 46.6605 40.608 47.0365 40.384C47.4125 40.152 47.8445 40.036 48.3325 40.036C48.7965 40.036 49.1805 40.124 49.4845 40.3C49.7965 40.468 50.0285 40.728 50.1805 41.08C50.3325 41.424 50.4085 41.86 50.4085 42.388V46H49.1965V42.46C49.1965 42.124 49.1525 41.852 49.0645 41.644C48.9765 41.428 48.8445 41.268 48.6685 41.164C48.4925 41.06 48.2645 41.008 47.9845 41.008C47.6645 41.008 47.3805 41.076 47.1325 41.212C46.8925 41.348 46.7045 41.544 46.5685 41.8C46.4405 42.056 46.3765 42.352 46.3765 42.688V46H45.1645Z" fill="#344365" fill-opacity="0.6"/>
<path d="M104.984 40V31.54H107.972C108.9 31.54 109.688 31.704 110.336 32.032C110.984 32.352 111.476 32.828 111.812 33.46C112.156 34.084 112.328 34.852 112.328 35.764C112.328 36.676 112.156 37.448 111.812 38.08C111.476 38.704 110.984 39.18 110.336 39.508C109.688 39.836 108.9 40 107.972 40H104.984ZM106.232 38.956H107.9C108.948 38.956 109.732 38.692 110.252 38.164C110.772 37.628 111.032 36.828 111.032 35.764C111.032 34.7 110.768 33.904 110.24 33.376C109.72 32.848 108.94 32.584 107.9 32.584H106.232V38.956ZM116.612 40.108C115.972 40.108 115.42 39.988 114.956 39.748C114.5 39.5 114.144 39.152 113.888 38.704C113.64 38.248 113.516 37.708 113.516 37.084C113.516 36.476 113.64 35.944 113.888 35.488C114.136 35.032 114.476 34.676 114.908 34.42C115.34 34.164 115.832 34.036 116.384 34.036C116.928 34.036 117.392 34.156 117.776 34.396C118.168 34.628 118.468 34.96 118.676 35.392C118.884 35.824 118.988 36.34 118.988 36.94V37.348H114.476V36.604H118.172L117.968 36.772C117.968 36.172 117.836 35.708 117.572 35.38C117.308 35.052 116.928 34.888 116.432 34.888C116.056 34.888 115.736 34.976 115.472 35.152C115.216 35.328 115.02 35.572 114.884 35.884C114.748 36.196 114.68 36.56 114.68 36.976V37.048C114.68 37.512 114.752 37.904 114.896 38.224C115.048 38.536 115.268 38.772 115.556 38.932C115.844 39.092 116.2 39.172 116.624 39.172C116.96 39.172 117.288 39.12 117.608 39.016C117.936 38.904 118.244 38.732 118.532 38.5L118.892 39.34C118.628 39.58 118.288 39.768 117.872 39.904C117.456 40.04 117.036 40.108 116.612 40.108ZM121.943 40L119.423 34.144H120.731L122.687 39.004H122.351L124.355 34.144H125.591L123.035 40H121.943ZM129.104 40.108C128.464 40.108 127.912 39.988 127.448 39.748C126.992 39.5 126.636 39.152 126.38 38.704C126.132 38.248 126.008 37.708 126.008 37.084C126.008 36.476 126.132 35.944 126.38 35.488C126.628 35.032 126.968 34.676 127.4 34.42C127.832 34.164 128.324 34.036 128.876 34.036C129.42 34.036 129.884 34.156 130.268 34.396C130.66 34.628 130.96 34.96 131.168 35.392C131.376 35.824 131.48 36.34 131.48 36.94V37.348H126.968V36.604H130.664L130.46 36.772C130.46 36.172 130.328 35.708 130.064 35.38C129.8 35.052 129.42 34.888 128.924 34.888C128.548 34.888 128.228 34.976 127.964 35.152C127.708 35.328 127.512 35.572 127.376 35.884C127.24 36.196 127.172 36.56 127.172 36.976V37.048C127.172 37.512 127.244 37.904 127.388 38.224C127.54 38.536 127.76 38.772 128.048 38.932C128.336 39.092 128.692 39.172 129.116 39.172C129.452 39.172 129.78 39.12 130.1 39.016C130.428 38.904 130.736 38.732 131.024 38.5L131.384 39.34C131.12 39.58 130.78 39.768 130.364 39.904C129.948 40.04 129.528 40.108 129.104 40.108ZM134.709 40.108C134.069 40.108 133.589 39.928 133.269 39.568C132.957 39.2 132.801 38.672 132.801 37.984V31.54H134.013V37.912C134.013 38.168 134.049 38.388 134.121 38.572C134.193 38.748 134.301 38.88 134.445 38.968C134.589 39.056 134.769 39.1 134.985 39.1C135.081 39.1 135.173 39.096 135.261 39.088C135.349 39.08 135.433 39.064 135.513 39.04L135.489 40.012C135.353 40.044 135.221 40.068 135.093 40.084C134.965 40.1 134.837 40.108 134.709 40.108ZM138.955 40.108C138.363 40.108 137.851 39.984 137.419 39.736C136.995 39.488 136.663 39.136 136.423 38.68C136.183 38.224 136.063 37.688 136.063 37.072C136.063 36.448 136.183 35.912 136.423 35.464C136.663 35.008 136.995 34.656 137.419 34.408C137.851 34.16 138.363 34.036 138.955 34.036C139.539 34.036 140.043 34.16 140.467 34.408C140.899 34.656 141.235 35.008 141.475 35.464C141.715 35.92 141.835 36.456 141.835 37.072C141.835 37.688 141.715 38.224 141.475 38.68C141.235 39.136 140.899 39.488 140.467 39.736C140.043 39.984 139.539 40.108 138.955 40.108ZM138.943 39.172C139.447 39.172 139.851 38.992 140.155 38.632C140.459 38.272 140.611 37.752 140.611 37.072C140.611 36.384 140.459 35.864 140.155 35.512C139.851 35.16 139.447 34.984 138.943 34.984C138.447 34.984 138.047 35.16 137.743 35.512C137.439 35.864 137.287 36.384 137.287 37.072C137.287 37.752 137.439 38.272 137.743 38.632C138.047 38.992 138.447 39.172 138.943 39.172ZM143.196 42.16V34.144H144.384V35.464H144.252C144.38 35.032 144.632 34.688 145.008 34.432C145.384 34.168 145.828 34.036 146.34 34.036C146.86 34.036 147.312 34.16 147.696 34.408C148.088 34.656 148.388 35.004 148.596 35.452C148.812 35.9 148.92 36.44 148.92 37.072C148.92 37.688 148.812 38.228 148.596 38.692C148.388 39.148 148.092 39.5 147.708 39.748C147.324 39.988 146.868 40.108 146.34 40.108C145.836 40.108 145.396 39.98 145.02 39.724C144.644 39.468 144.392 39.128 144.264 38.704H144.408V42.16H143.196ZM146.04 39.172C146.544 39.172 146.944 38.992 147.24 38.632C147.544 38.272 147.696 37.752 147.696 37.072C147.696 36.384 147.544 35.864 147.24 35.512C146.944 35.16 146.544 34.984 146.04 34.984C145.544 34.984 145.144 35.16 144.84 35.512C144.536 35.864 144.384 36.384 144.384 37.072C144.384 37.752 144.536 38.272 144.84 38.632C145.144 38.992 145.544 39.172 146.04 39.172ZM150.31 40V34.144H151.486V35.392H151.354C151.458 35.104 151.602 34.86 151.786 34.66C151.97 34.46 152.19 34.308 152.446 34.204C152.71 34.092 152.998 34.036 153.31 34.036C153.798 34.036 154.194 34.152 154.498 34.384C154.802 34.616 155.01 34.972 155.122 35.452H154.954C155.106 35.012 155.366 34.668 155.734 34.42C156.102 34.164 156.53 34.036 157.018 34.036C157.466 34.036 157.834 34.124 158.122 34.3C158.41 34.468 158.626 34.728 158.77 35.08C158.914 35.424 158.986 35.86 158.986 36.388V40H157.774V36.448C157.774 35.952 157.686 35.588 157.51 35.356C157.342 35.124 157.062 35.008 156.67 35.008C156.382 35.008 156.13 35.076 155.914 35.212C155.698 35.348 155.53 35.548 155.41 35.812C155.298 36.068 155.242 36.372 155.242 36.724V40H154.03V36.448C154.03 35.952 153.946 35.588 153.778 35.356C153.61 35.124 153.33 35.008 152.938 35.008C152.642 35.008 152.386 35.076 152.17 35.212C151.962 35.348 151.802 35.548 151.69 35.812C151.578 36.068 151.522 36.372 151.522 36.724V40H150.31ZM163.428 40.108C162.788 40.108 162.236 39.988 161.772 39.748C161.316 39.5 160.96 39.152 160.704 38.704C160.456 38.248 160.332 37.708 160.332 37.084C160.332 36.476 160.456 35.944 160.704 35.488C160.952 35.032 161.292 34.676 161.724 34.42C162.156 34.164 162.648 34.036 163.2 34.036C163.744 34.036 164.208 34.156 164.592 34.396C164.984 34.628 165.284 34.96 165.492 35.392C165.7 35.824 165.804 36.34 165.804 36.94V37.348H161.292V36.604H164.988L164.784 36.772C164.784 36.172 164.652 35.708 164.388 35.38C164.124 35.052 163.744 34.888 163.248 34.888C162.872 34.888 162.552 34.976 162.288 35.152C162.032 35.328 161.836 35.572 161.7 35.884C161.564 36.196 161.496 36.56 161.496 36.976V37.048C161.496 37.512 161.568 37.904 161.712 38.224C161.864 38.536 162.084 38.772 162.372 38.932C162.66 39.092 163.016 39.172 163.44 39.172C163.776 39.172 164.104 39.12 164.424 39.016C164.752 38.904 165.06 38.732 165.348 38.5L165.708 39.34C165.444 39.58 165.104 39.768 164.688 39.904C164.272 40.04 163.852 40.108 163.428 40.108ZM167.125 40V34.144H168.301V35.392H168.169C168.345 34.944 168.621 34.608 168.997 34.384C169.373 34.152 169.805 34.036 170.293 34.036C170.757 34.036 171.141 34.124 171.445 34.3C171.757 34.468 171.989 34.728 172.141 35.08C172.293 35.424 172.369 35.86 172.369 36.388V40H171.157V36.46C171.157 36.124 171.113 35.852 171.025 35.644C170.937 35.428 170.805 35.268 170.629 35.164C170.453 35.06 170.225 35.008 169.945 35.008C169.625 35.008 169.341 35.076 169.093 35.212C168.853 35.348 168.665 35.544 168.529 35.8C168.401 36.056 168.337 36.352 168.337 36.688V40H167.125ZM176.536 40.108C175.808 40.108 175.26 39.92 174.892 39.544C174.532 39.168 174.352 38.624 174.352 37.912V35.08H173.212V34.144H174.352V32.38H175.564V34.144H177.376V35.08H175.564V37.816C175.564 38.24 175.652 38.56 175.828 38.776C176.012 38.992 176.308 39.1 176.715 39.1C176.836 39.1 176.956 39.084 177.076 39.052C177.204 39.02 177.328 38.988 177.448 38.956L177.64 39.868C177.52 39.94 177.352 39.996 177.136 40.036C176.928 40.084 176.728 40.108 176.536 40.108Z" fill="#344365" fill-opacity="0.8"/>
<path d="M218.984 40V31.54H220.232V35.188H224.972V31.54H226.208V40H224.972V36.232H220.232V40H218.984ZM229.923 40.108C229.515 40.108 229.147 40.028 228.819 39.868C228.499 39.708 228.247 39.492 228.063 39.22C227.879 38.948 227.787 38.64 227.787 38.296C227.787 37.864 227.895 37.524 228.111 37.276C228.335 37.02 228.699 36.84 229.203 36.736C229.715 36.624 230.403 36.568 231.267 36.568H231.831V37.312H231.279C230.847 37.312 230.483 37.328 230.187 37.36C229.891 37.392 229.655 37.444 229.479 37.516C229.303 37.58 229.175 37.672 229.095 37.792C229.023 37.912 228.987 38.056 228.987 38.224C228.987 38.528 229.091 38.776 229.299 38.968C229.507 39.152 229.795 39.244 230.163 39.244C230.459 39.244 230.719 39.176 230.943 39.04C231.167 38.896 231.343 38.704 231.471 38.464C231.607 38.224 231.675 37.948 231.675 37.636V36.256C231.675 35.8 231.579 35.472 231.387 35.272C231.195 35.072 230.879 34.972 230.439 34.972C230.103 34.972 229.767 35.024 229.431 35.128C229.095 35.224 228.751 35.38 228.399 35.596L228.027 34.744C228.235 34.6 228.475 34.476 228.747 34.372C229.019 34.268 229.303 34.188 229.599 34.132C229.903 34.068 230.195 34.036 230.475 34.036C231.011 34.036 231.451 34.12 231.795 34.288C232.147 34.456 232.407 34.712 232.575 35.056C232.743 35.4 232.827 35.844 232.827 36.388V40H231.687V38.692H231.795C231.731 38.988 231.611 39.244 231.435 39.46C231.267 39.668 231.055 39.828 230.799 39.94C230.543 40.052 230.251 40.108 229.923 40.108ZM234.497 40V34.144H235.673V35.392H235.541C235.717 34.944 235.993 34.608 236.369 34.384C236.745 34.152 237.177 34.036 237.665 34.036C238.129 34.036 238.513 34.124 238.817 34.3C239.129 34.468 239.361 34.728 239.513 35.08C239.665 35.424 239.741 35.86 239.741 36.388V40H238.529V36.46C238.529 36.124 238.485 35.852 238.397 35.644C238.309 35.428 238.177 35.268 238.001 35.164C237.825 35.06 237.597 35.008 237.317 35.008C236.997 35.008 236.713 35.076 236.465 35.212C236.225 35.348 236.037 35.544 235.901 35.8C235.773 36.056 235.709 36.352 235.709 36.688V40H234.497ZM243.643 40.108C243.131 40.108 242.679 39.988 242.287 39.748C241.903 39.5 241.603 39.148 241.387 38.692C241.171 38.228 241.063 37.688 241.063 37.072C241.063 36.44 241.171 35.9 241.387 35.452C241.603 35.004 241.903 34.656 242.287 34.408C242.679 34.16 243.131 34.036 243.643 34.036C244.155 34.036 244.595 34.164 244.963 34.42C245.339 34.668 245.591 35.004 245.719 35.428H245.587V31.54H246.799V40H245.611V38.68H245.731C245.603 39.112 245.351 39.46 244.975 39.724C244.607 39.98 244.163 40.108 243.643 40.108ZM243.955 39.172C244.451 39.172 244.851 38.992 245.155 38.632C245.459 38.272 245.611 37.752 245.611 37.072C245.611 36.384 245.459 35.864 245.155 35.512C244.851 35.16 244.451 34.984 243.955 34.984C243.451 34.984 243.047 35.16 242.743 35.512C242.439 35.864 242.287 36.384 242.287 37.072C242.287 37.752 242.439 38.272 242.743 38.632C243.047 38.992 243.451 39.172 243.955 39.172ZM251.044 40.108C250.452 40.108 249.94 39.984 249.508 39.736C249.084 39.488 248.752 39.136 248.512 38.68C248.272 38.224 248.152 37.688 248.152 37.072C248.152 36.448 248.272 35.912 248.512 35.464C248.752 35.008 249.084 34.656 249.508 34.408C249.94 34.16 250.452 34.036 251.044 34.036C251.628 34.036 252.132 34.16 252.556 34.408C252.988 34.656 253.324 35.008 253.564 35.464C253.804 35.92 253.924 36.456 253.924 37.072C253.924 37.688 253.804 38.224 253.564 38.68C253.324 39.136 252.988 39.488 252.556 39.736C252.132 39.984 251.628 40.108 251.044 40.108ZM251.032 39.172C251.536 39.172 251.94 38.992 252.244 38.632C252.548 38.272 252.7 37.752 252.7 37.072C252.7 36.384 252.548 35.864 252.244 35.512C251.94 35.16 251.536 34.984 251.032 34.984C250.536 34.984 250.136 35.16 249.832 35.512C249.528 35.864 249.376 36.384 249.376 37.072C249.376 37.752 249.528 38.272 249.832 38.632C250.136 38.992 250.536 39.172 251.032 39.172ZM256.896 40L254.376 34.144H255.684L257.64 39.004H257.304L259.308 34.144H260.544L257.988 40H256.896ZM264.057 40.108C263.417 40.108 262.865 39.988 262.401 39.748C261.945 39.5 261.589 39.152 261.333 38.704C261.085 38.248 260.961 37.708 260.961 37.084C260.961 36.476 261.085 35.944 261.333 35.488C261.581 35.032 261.921 34.676 262.353 34.42C262.785 34.164 263.277 34.036 263.829 34.036C264.373 34.036 264.837 34.156 265.221 34.396C265.613 34.628 265.913 34.96 266.121 35.392C266.329 35.824 266.433 36.34 266.433 36.94V37.348H261.921V36.604H265.617L265.413 36.772C265.413 36.172 265.281 35.708 265.017 35.38C264.753 35.052 264.373 34.888 263.877 34.888C263.501 34.888 263.181 34.976 262.917 35.152C262.661 35.328 262.465 35.572 262.329 35.884C262.193 36.196 262.125 36.56 262.125 36.976V37.048C262.125 37.512 262.197 37.904 262.341 38.224C262.493 38.536 262.713 38.772 263.001 38.932C263.289 39.092 263.645 39.172 264.069 39.172C264.405 39.172 264.733 39.12 265.053 39.016C265.381 38.904 265.689 38.732 265.977 38.5L266.337 39.34C266.073 39.58 265.733 39.768 265.317 39.904C264.901 40.04 264.481 40.108 264.057 40.108ZM267.754 40V34.144H268.93V35.548H268.81C268.938 35.068 269.166 34.704 269.494 34.456C269.83 34.208 270.274 34.064 270.826 34.024L271.222 34L271.306 35.032L270.574 35.104C270.054 35.152 269.658 35.316 269.386 35.596C269.114 35.876 268.978 36.26 268.978 36.748V40H267.754Z" fill="#344365" fill-opacity="0.55"/>
<path d="M219.112 46V43.58H218.124V43.18H220.552V43.58H219.564V46H219.112ZM221.759 46.036C221.519 46.036 221.313 45.996 221.139 45.916C220.969 45.8333 220.838 45.7133 220.747 45.556C220.659 45.3987 220.615 45.212 220.615 44.996C220.615 44.7987 220.655 44.6227 220.735 44.468C220.818 44.3107 220.937 44.1867 221.091 44.096C221.246 44.0053 221.431 43.96 221.647 43.96C221.85 43.96 222.023 44.0027 222.167 44.088C222.311 44.1733 222.421 44.2933 222.495 44.448C222.573 44.6027 222.611 44.788 222.611 45.004V45.136H220.963V44.836H222.295L222.223 44.92C222.223 44.7147 222.173 44.56 222.071 44.456C221.973 44.352 221.833 44.3 221.651 44.3C221.534 44.3 221.43 44.3253 221.339 44.376C221.249 44.424 221.177 44.4947 221.123 44.588C221.073 44.6813 221.047 44.7973 221.047 44.936V44.992C221.047 45.1467 221.075 45.2747 221.131 45.376C221.19 45.4747 221.274 45.5493 221.383 45.6C221.493 45.648 221.623 45.672 221.775 45.672C221.882 45.672 221.991 45.66 222.103 45.636C222.218 45.6093 222.323 45.56 222.419 45.488L222.559 45.808C222.45 45.8907 222.323 45.9493 222.179 45.984C222.035 46.0187 221.895 46.036 221.759 46.036ZM224.003 46.036C223.886 46.036 223.77 46.0267 223.655 46.008C223.543 45.992 223.439 45.9667 223.343 45.932C223.25 45.8973 223.17 45.8533 223.103 45.8L223.235 45.476C223.305 45.5267 223.382 45.5667 223.467 45.596C223.553 45.6253 223.639 45.6467 223.727 45.66C223.818 45.6733 223.905 45.68 223.987 45.68C224.15 45.68 224.275 45.6613 224.363 45.624C224.454 45.584 224.499 45.5227 224.499 45.44C224.499 45.3707 224.475 45.3187 224.427 45.284C224.379 45.2493 224.298 45.224 224.183 45.208L223.735 45.14C223.538 45.1107 223.39 45.0467 223.291 44.948C223.195 44.8467 223.147 44.7213 223.147 44.572C223.147 44.452 223.181 44.3467 223.247 44.256C223.314 44.1653 223.414 44.0933 223.547 44.04C223.681 43.9867 223.845 43.96 224.039 43.96C224.138 43.96 224.239 43.9693 224.343 43.988C224.45 44.004 224.547 44.0293 224.635 44.064C224.726 44.0987 224.798 44.1413 224.851 44.192L224.715 44.508C224.659 44.4627 224.593 44.4267 224.515 44.4C224.438 44.3707 224.358 44.3507 224.275 44.34C224.195 44.3267 224.117 44.32 224.039 44.32C223.885 44.32 223.765 44.3413 223.679 44.384C223.597 44.424 223.555 44.484 223.555 44.564C223.555 44.6307 223.578 44.6813 223.623 44.716C223.671 44.748 223.747 44.7733 223.851 44.792L224.279 44.86C224.495 44.8973 224.654 44.9627 224.755 45.056C224.857 45.1493 224.907 45.276 224.907 45.436C224.907 45.5587 224.87 45.6653 224.795 45.756C224.721 45.8467 224.615 45.916 224.479 45.964C224.346 46.012 224.187 46.036 224.003 46.036ZM226.385 46.036C226.124 46.036 225.928 45.9693 225.797 45.836C225.667 45.7027 225.601 45.512 225.601 45.264V44.376H225.197V44H225.629V43.428H226.053V44H226.801V44.376H226.053V45.24C226.053 45.3787 226.087 45.4813 226.153 45.548C226.223 45.6147 226.324 45.648 226.457 45.648C226.519 45.648 226.577 45.6427 226.633 45.632C226.689 45.6213 226.744 45.6053 226.797 45.584L226.861 45.94C226.795 45.9747 226.72 45.9987 226.637 46.012C226.557 46.028 226.473 46.036 226.385 46.036ZM227.277 43.564V43.084H227.813V43.564H227.277ZM227.321 46V44H227.777V46H227.321ZM228.501 46V44H228.913V44.416H228.937C229.006 44.2747 229.105 44.164 229.233 44.084C229.361 44.0013 229.503 43.96 229.661 43.96C229.829 43.96 229.969 43.9907 230.081 44.052C230.195 44.1133 230.281 44.2067 230.337 44.332C230.395 44.4547 230.425 44.6107 230.425 44.8V46H229.969V44.82C229.969 44.724 229.954 44.6413 229.925 44.572C229.898 44.5 229.853 44.4453 229.789 44.408C229.727 44.368 229.645 44.348 229.541 44.348C229.429 44.348 229.329 44.3733 229.241 44.424C229.153 44.4747 229.083 44.5427 229.033 44.628C228.982 44.7107 228.957 44.8027 228.957 44.904V46H228.501ZM232.017 46.756C231.865 46.756 231.711 46.7333 231.553 46.688C231.396 46.6453 231.261 46.5853 231.149 46.508L231.281 46.148C231.351 46.1933 231.427 46.232 231.509 46.264C231.592 46.2987 231.677 46.3253 231.765 46.344C231.853 46.3627 231.935 46.372 232.009 46.372C232.225 46.372 232.392 46.3227 232.509 46.224C232.629 46.1253 232.689 45.984 232.689 45.8V45.508H232.661C232.605 45.6307 232.517 45.732 232.397 45.812C232.277 45.8893 232.137 45.928 231.977 45.928C231.788 45.928 231.621 45.888 231.477 45.808C231.336 45.7253 231.225 45.6107 231.145 45.464C231.068 45.3147 231.029 45.1413 231.029 44.944C231.029 44.7467 231.068 44.5747 231.145 44.428C231.225 44.2787 231.336 44.164 231.477 44.084C231.621 44.0013 231.788 43.96 231.977 43.96C232.137 43.96 232.279 44 232.401 44.08C232.524 44.16 232.613 44.268 232.669 44.404H232.693V44H233.109V45.768C233.109 45.968 233.065 46.1413 232.977 46.288C232.889 46.4347 232.764 46.5493 232.601 46.632C232.439 46.7147 232.244 46.756 232.017 46.756ZM232.073 45.564C232.255 45.564 232.399 45.508 232.505 45.396C232.612 45.2813 232.665 45.1293 232.665 44.94C232.665 44.7533 232.612 44.604 232.505 44.492C232.399 44.38 232.255 44.324 232.073 44.324C231.889 44.324 231.744 44.38 231.637 44.492C231.531 44.604 231.477 44.7533 231.477 44.94C231.477 45.1293 231.531 45.2813 231.637 45.396C231.744 45.508 231.889 45.564 232.073 45.564ZM233.757 46.264L233.413 46.176L234.433 42.98L234.777 43.068L233.757 46.264ZM237.148 46.824L236.788 46.24C236.748 46.1733 236.693 46.1227 236.624 46.088C236.557 46.0533 236.476 46.036 236.38 46.036L236.704 45.9C236.794 45.9 236.873 45.908 236.94 45.924C237.009 45.9373 237.07 45.964 237.124 46.004C237.177 46.044 237.228 46.1013 237.276 46.176L237.556 46.62L237.148 46.824ZM236.352 46.036C236.144 46.036 235.956 46.004 235.788 45.94C235.622 45.8733 235.481 45.7773 235.364 45.652C235.246 45.524 235.156 45.372 235.092 45.196C235.028 45.0173 234.996 44.8147 234.996 44.588C234.996 44.364 235.026 44.164 235.088 43.988C235.152 43.8093 235.242 43.6573 235.36 43.532C235.48 43.404 235.622 43.308 235.788 43.244C235.956 43.1773 236.144 43.144 236.352 43.144C236.56 43.144 236.746 43.1773 236.912 43.244C237.077 43.308 237.218 43.4027 237.336 43.528C237.456 43.6533 237.546 43.8053 237.608 43.984C237.672 44.1627 237.704 44.3627 237.704 44.584C237.704 44.8107 237.672 45.0133 237.608 45.192C237.546 45.3707 237.456 45.524 237.336 45.652C237.218 45.7773 237.077 45.8733 236.912 45.94C236.746 46.004 236.56 46.036 236.352 46.036ZM236.352 45.636C236.538 45.636 236.697 45.596 236.828 45.516C236.958 45.436 237.058 45.3187 237.128 45.164C237.2 45.0067 237.236 44.8147 237.236 44.588C237.236 44.3587 237.201 44.1667 237.132 44.012C237.062 43.8573 236.961 43.7413 236.828 43.664C236.697 43.584 236.538 43.544 236.352 43.544C236.165 43.544 236.005 43.584 235.872 43.664C235.741 43.7413 235.64 43.8573 235.568 44.012C235.498 44.1667 235.464 44.3587 235.464 44.588C235.464 44.8147 235.498 45.0067 235.568 45.164C235.64 45.3187 235.741 45.436 235.872 45.516C236.005 45.596 236.165 45.636 236.352 45.636ZM238.089 46L239.341 43.18H239.753L241.005 46H240.525L240.189 45.204L240.397 45.364H238.693L238.897 45.204L238.557 46H238.089ZM239.533 43.672L238.937 45.076L238.837 44.98H240.253L240.145 45.076L239.557 43.672H239.533Z" fill="#344365" fill-opacity="0.67"/>
<rect x="105" y="45" width="96" height="2" rx="1" fill="#D9D9D9"/>
<rect x="105" y="45" width="20" height="2" rx="1" fill="#516CA7"/>
<path d="M274.775 26.045C274.578 26.045 274.388 26.0317 274.205 26.005C274.025 25.9817 273.86 25.9417 273.71 25.885C273.56 25.8283 273.43 25.7583 273.32 25.675L273.52 25.21C273.637 25.2933 273.76 25.36 273.89 25.41C274.023 25.46 274.165 25.495 274.315 25.515C274.465 25.535 274.618 25.545 274.775 25.545C275.028 25.545 275.223 25.4983 275.36 25.405C275.5 25.3083 275.57 25.1717 275.57 24.995C275.57 24.9017 275.547 24.8267 275.5 24.77C275.457 24.71 275.387 24.6633 275.29 24.63C275.197 24.5933 275.075 24.5617 274.925 24.535L274.335 24.425C273.998 24.3617 273.758 24.2467 273.615 24.08C273.472 23.9133 273.4 23.705 273.4 23.455C273.4 23.245 273.462 23.0633 273.585 22.91C273.708 22.7567 273.877 22.6383 274.09 22.555C274.307 22.4717 274.553 22.43 274.83 22.43C275 22.43 275.16 22.445 275.31 22.475C275.463 22.5017 275.602 22.545 275.725 22.605C275.852 22.6617 275.963 22.7333 276.06 22.82L275.86 23.285C275.717 23.155 275.558 23.0633 275.385 23.01C275.215 22.9567 275.028 22.93 274.825 22.93C274.665 22.93 274.518 22.95 274.385 22.99C274.255 23.03 274.153 23.0883 274.08 23.165C274.007 23.2417 273.97 23.34 273.97 23.46C273.97 23.59 274.012 23.6917 274.095 23.765C274.178 23.835 274.328 23.89 274.545 23.93L275.13 24.035C275.477 24.095 275.732 24.205 275.895 24.365C276.058 24.5217 276.14 24.7233 276.14 24.97C276.14 25.18 276.083 25.3667 275.97 25.53C275.857 25.69 275.698 25.8167 275.495 25.91C275.292 26 275.052 26.045 274.775 26.045ZM278.173 26.045C277.873 26.045 277.614 25.995 277.398 25.895C277.184 25.7917 277.021 25.6417 276.908 25.445C276.798 25.2483 276.743 25.015 276.743 24.745C276.743 24.4983 276.793 24.2783 276.893 24.085C276.996 23.8883 277.144 23.7333 277.338 23.62C277.531 23.5067 277.763 23.45 278.033 23.45C278.286 23.45 278.503 23.5033 278.683 23.61C278.863 23.7167 278.999 23.8667 279.093 24.06C279.189 24.2533 279.238 24.485 279.238 24.755V24.92H277.178V24.545H278.843L278.753 24.65C278.753 24.3933 278.689 24.2 278.563 24.07C278.439 23.94 278.264 23.875 278.038 23.875C277.891 23.875 277.761 23.9067 277.648 23.97C277.534 24.03 277.444 24.1183 277.378 24.235C277.314 24.3517 277.283 24.4967 277.283 24.67V24.74C277.283 24.9333 277.318 25.0933 277.388 25.22C277.461 25.3433 277.566 25.4367 277.703 25.5C277.839 25.56 278.003 25.59 278.193 25.59C278.326 25.59 278.463 25.575 278.603 25.545C278.746 25.5117 278.878 25.45 278.998 25.36L279.173 25.76C279.036 25.8633 278.878 25.9367 278.698 25.98C278.518 26.0233 278.343 26.045 278.173 26.045ZM279.993 26.9V23.495H280.498V24.01H280.528C280.611 23.8267 280.731 23.6883 280.888 23.595C281.048 23.4983 281.231 23.45 281.438 23.45C281.675 23.45 281.88 23.505 282.053 23.615C282.23 23.725 282.365 23.8767 282.458 24.07C282.551 24.2633 282.598 24.4883 282.598 24.745C282.598 24.995 282.551 25.2183 282.458 25.415C282.368 25.6117 282.236 25.7667 282.063 25.88C281.89 25.99 281.683 26.045 281.443 26.045C281.24 26.045 281.066 26 280.923 25.91C280.78 25.8167 280.67 25.6933 280.593 25.54H280.563V26.9H279.993ZM281.298 25.59C281.528 25.59 281.708 25.5133 281.838 25.36C281.968 25.2067 282.033 25 282.033 24.74C282.033 24.4833 281.968 24.28 281.838 24.13C281.711 23.98 281.531 23.905 281.298 23.905C281.065 23.905 280.883 23.98 280.753 24.13C280.623 24.28 280.558 24.4833 280.558 24.74C280.558 25 280.623 25.2067 280.753 25.36C280.886 25.5133 281.068 25.59 281.298 25.59ZM284.473 26.045C284.146 26.045 283.901 25.9617 283.738 25.795C283.574 25.6283 283.493 25.39 283.493 25.08V23.97H282.988V23.5H283.528V22.785H284.058V23.5H284.993V23.97H284.058V25.05C284.058 25.2233 284.099 25.3517 284.183 25.435C284.269 25.5183 284.396 25.56 284.563 25.56C284.639 25.56 284.713 25.5533 284.783 25.54C284.853 25.5267 284.921 25.5067 284.988 25.48L285.068 25.925C284.984 25.9683 284.891 25.9983 284.788 26.015C284.688 26.035 284.583 26.045 284.473 26.045ZM287.172 26L288.887 22.72L288.917 22.975H286.967V22.475H289.387V22.9L287.782 26H287.172Z" fill="#A9ADA7"/>
</svg>
